<svg xmlns="http://www.w3.org/2000/svg" width="85.201" height="23.328" viewBox="0 0 85.201 23.328">
  <g id="_256bit" data-name="256bit" opacity="0.805">
    <g id="Gruppe_259" data-name="Gruppe 259" transform="translate(22.354 0.335)">
      <path id="Pfad_165" data-name="Pfad 165" d="M220.114,55.295h-9.106V53.328l4.178-4.4A9.165,9.165,0,0,0,216.36,47.3a2.864,2.864,0,0,0,.38-1.24,1.746,1.746,0,0,0-.38-1.2,1.411,1.411,0,0,0-1.14-.447,1.223,1.223,0,0,0-1.073.581,2.583,2.583,0,0,0-.391,1.475h-2.95l-.022-.056a4.056,4.056,0,0,1,1.184-3.061,4.318,4.318,0,0,1,3.24-1.251,4.919,4.919,0,0,1,3.352,1.05,3.632,3.632,0,0,1,1.207,2.882,3.787,3.787,0,0,1-.637,2.179,25.6,25.6,0,0,1-2.357,2.815l-1.765,1.888.022.056H220.1v2.324Z" transform="translate(-210.783 -42.089)" fill="#fff"/>
      <path id="Pfad_166" data-name="Pfad 166" d="M307.754,51l.749-7.3h7.631v2.324H310.96l-.335,2.726a3.015,3.015,0,0,1,.849-.425,3.9,3.9,0,0,1,1.117-.179,3.626,3.626,0,0,1,2.938,1.117,4.759,4.759,0,0,1,1.028,3.262,4.424,4.424,0,0,1-1.173,3.106,4.329,4.329,0,0,1-3.352,1.274,5.257,5.257,0,0,1-3.229-1.028,3.09,3.09,0,0,1-1.318-2.715l.022-.056,2.95-.179a1.658,1.658,0,0,0,.436,1.218,1.55,1.55,0,0,0,1.151.436A1.226,1.226,0,0,0,313.206,54a2.757,2.757,0,0,0,.346-1.464,3.172,3.172,0,0,0-.38-1.687,1.321,1.321,0,0,0-1.218-.614,1.76,1.76,0,0,0-.983.257,1.378,1.378,0,0,0-.514.648Z" transform="translate(-296.68 -43.51)" fill="#fff"/>
      <path id="Pfad_167" data-name="Pfad 167" d="M407.419,42a6.188,6.188,0,0,1,1.363.134,8.756,8.756,0,0,1,1.318.413l-.5,2.2a10.558,10.558,0,0,0-1.095-.279,5.2,5.2,0,0,0-1.073-.089,2.165,2.165,0,0,0-1.721.76,3.216,3.216,0,0,0-.626,2.2l.022.045a2.543,2.543,0,0,1,1.05-.693,4.1,4.1,0,0,1,1.486-.246,3.232,3.232,0,0,1,2.715,1.251,5.107,5.107,0,0,1,.972,3.218,4.362,4.362,0,0,1-1.285,3.218,4.42,4.42,0,0,1-3.273,1.285,4.522,4.522,0,0,1-3.452-1.408A5.419,5.419,0,0,1,402,50.167V47.53A5.165,5.165,0,0,1,407.419,42Zm-.6,6.748a3.089,3.089,0,0,0-1.073.168,1.738,1.738,0,0,0-.715.469v.771a4.211,4.211,0,0,0,.458,2.156,1.425,1.425,0,0,0,1.285.749,1.272,1.272,0,0,0,1.106-.637,3.066,3.066,0,0,0,.011-3.095A1.262,1.262,0,0,0,406.815,48.748Z" transform="translate(-380.636 -42)" fill="#fff"/>
      <path id="Pfad_168" data-name="Pfad 168" d="M540.3,56.716V43.7h4.469a6.838,6.838,0,0,1,3.776.894,3,3,0,0,1,1.363,2.681,3.151,3.151,0,0,1-.436,1.654,2.679,2.679,0,0,1-1.352,1.095,2.673,2.673,0,0,1,1.687,1.039,3.033,3.033,0,0,1,.547,1.8,3.414,3.414,0,0,1-1.274,2.882,5.964,5.964,0,0,1-3.665.972Zm3.028-7.586h1.5a2.647,2.647,0,0,0,1.542-.4,1.325,1.325,0,0,0,.514-1.117,1.373,1.373,0,0,0-.514-1.207,2.657,2.657,0,0,0-1.586-.38h-1.441V49.13Zm0,2v3.262h2.078a2.3,2.3,0,0,0,1.452-.38,1.38,1.38,0,0,0,.48-1.162,1.515,1.515,0,0,0-1.754-1.721Z" transform="translate(-503.485 -43.51)" fill="#fff"/>
      <path id="Pfad_169" data-name="Pfad 169" d="M650.217,56.716H647.2V43.7h3.017Z" transform="translate(-598.441 -43.51)" fill="#fff"/>
      <path id="Pfad_170" data-name="Pfad 170" d="M694.865,46.024h-3.43V56.716h-3.028V46.024H685V43.7h9.865Z" transform="translate(-632.018 -43.51)" fill="#fff"/>
    </g>
    <g id="Gruppe_260" data-name="Gruppe 260" transform="translate(22.557 15.574)">
      <path id="Pfad_171" data-name="Pfad 171" d="M217.069,183.433h-3.452v2.693h3.977v.8H212.6V179.4h4.938v.8h-3.922v2.436h3.452Z" transform="translate(-212.6 -179.288)" fill="#fff"/>
      <path id="Pfad_172" data-name="Pfad 172" d="M273.7,186.93h-1.017l-3.62-5.821-.034.011v5.81H268V179.4h1.017l3.62,5.81.034-.011v-5.8h1.017v7.53Z" transform="translate(-261.81 -179.288)" fill="#fff"/>
      <path id="Pfad_173" data-name="Pfad 173" d="M338.342,183.717l.011.034a2.278,2.278,0,0,1-.749,1.776,2.833,2.833,0,0,1-2.022.715,2.652,2.652,0,0,1-2.078-.9,3.313,3.313,0,0,1-.8-2.29v-1.341a3.361,3.361,0,0,1,.8-2.3,2.652,2.652,0,0,1,2.078-.9,2.907,2.907,0,0,1,2.033.682,2.259,2.259,0,0,1,.737,1.8l-.011.034h-.972a1.668,1.668,0,0,0-.469-1.251,1.818,1.818,0,0,0-1.318-.458,1.615,1.615,0,0,0-1.363.682,2.817,2.817,0,0,0-.5,1.709v1.352a2.817,2.817,0,0,0,.5,1.709,1.6,1.6,0,0,0,1.363.682,1.818,1.818,0,0,0,1.318-.458,1.677,1.677,0,0,0,.469-1.263Z" transform="translate(-319.282 -178.489)" fill="#fff"/>
      <path id="Pfad_174" data-name="Pfad 174" d="M396.617,183.757v3.262H395.6V179.5h2.726a2.841,2.841,0,0,1,1.888.547,1.954,1.954,0,0,1,.648,1.587,1.675,1.675,0,0,1-.3,1.006,1.978,1.978,0,0,1-.883.682,1.546,1.546,0,0,1,.894.659,2.149,2.149,0,0,1,.268,1.117v.7a2.129,2.129,0,0,0,.078.626,1.04,1.04,0,0,0,.268.458v.123h-1.05a.809.809,0,0,1-.257-.514,4.725,4.725,0,0,1-.056-.7V185.1a1.38,1.38,0,0,0-.358-.983,1.271,1.271,0,0,0-.961-.369h-1.888Zm0-.8h1.6a1.9,1.9,0,0,0,1.24-.324,1.234,1.234,0,0,0,.38-.994,1.289,1.289,0,0,0-.369-.983,1.612,1.612,0,0,0-1.151-.346h-1.709v2.648Z" transform="translate(-375.154 -179.377)" fill="#fff"/>
      <path id="Pfad_175" data-name="Pfad 175" d="M451.839,183.221l1.966-3.821h1.162l-2.637,4.882v2.648H451.3v-2.715l-2.6-4.815h1.162Z" transform="translate(-422.322 -179.288)" fill="#fff"/>
      <path id="Pfad_176" data-name="Pfad 176" d="M515.017,183.814v3.017H514V179.3h2.882a2.615,2.615,0,0,1,1.866.626,2.334,2.334,0,0,1,0,3.274,2.648,2.648,0,0,1-1.866.614Zm0-.793h1.866a1.438,1.438,0,0,0,1.14-.413,1.5,1.5,0,0,0,.38-1.039,1.372,1.372,0,0,0-1.52-1.452h-1.866Z" transform="translate(-480.326 -179.199)" fill="#fff"/>
      <path id="Pfad_177" data-name="Pfad 177" d="M573.843,180.2H571.43v6.726h-1.017V180.2H568v-.8h5.854v.8Z" transform="translate(-528.293 -179.288)" fill="#fff"/>
      <path id="Pfad_178" data-name="Pfad 178" d="M631.628,186.93H630.6V179.4h1.028Z" transform="translate(-583.899 -179.288)" fill="#fff"/>
      <path id="Pfad_179" data-name="Pfad 179" d="M659.855,182.947a3.22,3.22,0,0,1-.86,2.29,2.913,2.913,0,0,1-2.223.9,2.761,2.761,0,0,1-2.145-.9,3.3,3.3,0,0,1-.827-2.29v-1.341a3.315,3.315,0,0,1,.827-2.29,2.733,2.733,0,0,1,2.145-.916,2.9,2.9,0,0,1,2.223.916,3.22,3.22,0,0,1,.86,2.29Zm-1.028-1.352a2.569,2.569,0,0,0-.559-1.7,1.869,1.869,0,0,0-1.5-.659,1.744,1.744,0,0,0-1.419.659,2.593,2.593,0,0,0-.525,1.7v1.352a2.711,2.711,0,0,0,.525,1.709,1.744,1.744,0,0,0,1.419.659,1.869,1.869,0,0,0,1.5-.659,2.559,2.559,0,0,0,.559-1.709Z" transform="translate(-604.507 -178.4)" fill="#fff"/>
      <path id="Pfad_180" data-name="Pfad 180" d="M727.287,186.93H726.27l-3.62-5.821-.034.011v5.81H721.6V179.4h1.017l3.62,5.81.033-.011v-5.8h1.017Z" transform="translate(-664.732 -179.288)" fill="#fff"/>
    </g>
    <g id="Gruppe_262" data-name="Gruppe 262" transform="translate(0 0)">
      <g id="Gruppe_261" data-name="Gruppe 261">
        <path id="Pfad_181" data-name="Pfad 181" d="M25.4,49.726V44.62A5.631,5.631,0,0,0,19.783,39H18.331a5.631,5.631,0,0,0-5.62,5.62v5.106H10.7v12.4H27.414v-12.4Zm-10.111,0V44.62a3.054,3.054,0,0,1,3.05-3.05h1.441a3.054,3.054,0,0,1,3.05,3.05v5.106H15.292Z" transform="translate(-10.7 -39)" fill="#fff"/>
      </g>
    </g>
  </g>
</svg>
