<svg xmlns="http://www.w3.org/2000/svg" width="93.345" height="34.989" viewBox="0 0 93.345 34.989">
  <g id="amazon" opacity="0.805">
    <path id="path14" d="M177.126,34.26,171.7,32.447V24.6l5.426,1.614V34.26" transform="translate(-151.189 -22.191)" fill="#fff"/>
    <path id="path16" d="M226.712,26.214l5.426-1.614-.025,7.835L226.7,34.247V26.214" transform="translate(-199.36 -22.191)" fill="#fff"/>
    <path id="path18" d="M190.657,6.764,185.591,5.2,180.6,6.764l5,1.341,5.053-1.341" transform="translate(-158.983 -5.2)" fill="#fff"/>
    <path id="path20" d="M287.226,34.26,281.8,32.447V24.6l5.426,1.614V34.26" transform="translate(-247.618 -22.191)" fill="#fff"/>
    <path id="path22" d="M336.812,26.214l5.426-1.614-.025,7.835L336.8,34.247V26.214" transform="translate(-295.789 -22.191)" fill="#fff"/>
    <path id="path24" d="M300.857,6.764,295.791,5.2,290.8,6.764l5,1.341,5.053-1.341" transform="translate(-255.501 -5.2)" fill="#fff"/>
    <path id="path26" d="M11.926,118.514,6.5,116.9v7.847l5.426,1.813v-8.046" transform="translate(-6.5 -103.031)" fill="#fff"/>
    <path id="path28" d="M61.412,118.514l5.426-1.614-.025,7.835L61.4,126.547v-8.033" transform="translate(-54.584 -103.031)" fill="#fff"/>
    <path id="path30" d="M25.457,99.064,20.391,97.5,15.4,99.064l5,1.341,5.053-1.341" transform="translate(-14.295 -86.04)" fill="#fff"/>
    <path id="path32" d="M122.026,126.56l-5.426-1.813V116.9l5.426,1.614v8.046" transform="translate(-102.93 -103.031)" fill="#fff"/>
    <path id="path34" d="M171.612,118.514l5.426-1.614-.025,7.835-5.413,1.813v-8.033" transform="translate(-151.101 -103.031)" fill="#fff"/>
    <path id="path36" d="M135.557,99.064,130.491,97.5,125.5,99.064l5,1.341,5.053-1.341" transform="translate(-110.725 -86.04)" fill="#fff"/>
    <path id="path38" d="M66.926,218.86,61.5,217.047V209.2l5.426,1.614v8.046" transform="translate(-54.671 -183.871)" fill="#fff"/>
    <path id="path40" d="M116.6,210.814l5.426-1.614L122,217.035l-5.4,1.825v-8.046" transform="translate(-102.93 -183.871)" fill="#fff"/>
    <path id="path42" d="M80.457,191.364,75.391,189.8,70.4,191.364l5,1.341,5.053-1.341" transform="translate(-62.466 -166.88)" fill="#fff"/>
    <path id="path44" d="M243.051,231.2h-.4a.416.416,0,0,0-.385.261l-1.217,4.271-1.192-4.259a.36.36,0,0,0-.335-.273h-.472a.334.334,0,0,0-.323.273l-1.117,4.209-1.155-4.221a.436.436,0,0,0-.385-.261H235.5a.36.36,0,0,0-.3.137.236.236,0,0,0-.037.174l1.776,6.295a.335.335,0,0,0,.323.261h.571a.341.341,0,0,0,.323-.273l1.093-4.2,1.192,4.2a.36.36,0,0,0,.323.273h.559a.331.331,0,0,0,.323-.273l1.713-6.295a.178.178,0,0,0-.037-.186.332.332,0,0,0-.273-.112" transform="translate(-206.771 -203.139)" fill="#fff"/>
    <path id="path46" d="M307.145,233.519h-3.017a1.784,1.784,0,0,1,1.552-1.763A1.62,1.62,0,0,1,307.145,233.519Zm-1.478-2.719c-2.036,0-2.967,1.8-2.967,3.477,0,2.086,1.155,3.439,2.943,3.439a2.685,2.685,0,0,0,2.669-1.776.228.228,0,0,0-.025-.2.3.3,0,0,0-.224-.149l-.571-.112a.375.375,0,0,0-.385.2,1.56,1.56,0,0,1-1.4,1.006,1.632,1.632,0,0,1-1.415-.919,2.877,2.877,0,0,1-.236-1.316h4.1a.339.339,0,0,0,.236-.1.227.227,0,0,0,.074-.186c.012-1.627-.733-3.365-2.794-3.365" transform="translate(-265.923 -202.789)" fill="#fff"/>
    <path id="path48" d="M360.384,219.225c0,.385-.075,2.309-1.44,2.359a1.512,1.512,0,0,1-1.18-.683,2.728,2.728,0,0,1-.335-1.229v-1.13a1.815,1.815,0,0,1,1.5-1.85c1.378.037,1.453,2.123,1.453,2.533Zm-1.229-3.539h-.112a1.893,1.893,0,0,0-1.614.857v-2.657a.315.315,0,0,0-.323-.286h-.584a.323.323,0,0,0-.323.286v8.282a.315.315,0,0,0,.323.286h.174a.367.367,0,0,0,.323-.248l.186-.584a2.153,2.153,0,0,0,1.763.968h.112c1.813,0,2.632-1.763,2.632-3.514a4.361,4.361,0,0,0-.584-2.285,2.391,2.391,0,0,0-1.974-1.105" transform="translate(-312.781 -187.725)" fill="#fff"/>
    <path id="path50" d="M419.523,234.19a3.215,3.215,0,0,0-1.3-.459l-.882-.161c-.633-.1-1.006-.273-1.006-.832,0-.6.608-.819,1.13-.832a1.409,1.409,0,0,1,1.341.795.344.344,0,0,0,.3.2.093.093,0,0,0,.062-.012l.546-.124a.42.42,0,0,0,.224-.161.228.228,0,0,0,.025-.2,2.351,2.351,0,0,0-2.5-1.5c-1.167,0-2.421.521-2.421,1.974,0,.993.621,1.627,1.862,1.875l.993.186c.546.1,1.1.286,1.1.869,0,.869-1.006.956-1.3.956a1.662,1.662,0,0,1-1.639-.968.34.34,0,0,0-.372-.211l-.571.124a.322.322,0,0,0-.211.149.288.288,0,0,0-.037.2,2.624,2.624,0,0,0,2.756,1.726h.037c1.279,0,2.645-.546,2.645-2.086a1.894,1.894,0,0,0-.782-1.5" transform="translate(-364.159 -202.877)" fill="#fff"/>
    <path id="path52" d="M468.133,233.619h-3.017a1.784,1.784,0,0,1,1.552-1.763A1.62,1.62,0,0,1,468.133,233.619Zm-1.465-2.719c-2.036,0-2.967,1.8-2.967,3.477,0,2.086,1.155,3.439,2.943,3.439a2.685,2.685,0,0,0,2.669-1.776.228.228,0,0,0-.025-.2.3.3,0,0,0-.224-.149l-.571-.112a.367.367,0,0,0-.385.2,1.574,1.574,0,0,1-1.4,1.006,1.632,1.632,0,0,1-1.415-.919,2.877,2.877,0,0,1-.236-1.316h4.1a.339.339,0,0,0,.236-.1.227.227,0,0,0,.074-.186c0-1.627-.745-3.365-2.794-3.365" transform="translate(-406.933 -202.877)" fill="#fff"/>
    <path id="path54" d="M519.93,231.412a1.5,1.5,0,0,0-.236-.012,1.844,1.844,0,0,0-1.639,1.093v-.621a.315.315,0,0,0-.323-.286h-.509a.324.324,0,0,0-.323.286v6.072a.315.315,0,0,0,.323.286h.6a.327.327,0,0,0,.335-.286v-3.067a2.644,2.644,0,0,1,.286-1.341,1.592,1.592,0,0,1,1.465-.956.3.3,0,0,0,.3-.3v-.571a.272.272,0,0,0-.273-.3" transform="translate(-453.528 -203.315)" fill="#fff"/>
    <path id="path56" d="M554.106,230.5h-.472a.436.436,0,0,0-.385.261l-1.527,4.805-1.564-4.793a.416.416,0,0,0-.385-.261h-.67a.345.345,0,0,0-.3.137.256.256,0,0,0-.037.186l2.136,6.332a.36.36,0,0,0,.323.273h.819a.339.339,0,0,0,.323-.273l2.073-6.332a.178.178,0,0,0-.037-.186.353.353,0,0,0-.3-.149" transform="translate(-481.434 -202.526)" fill="#fff"/>
    <path id="path58" d="M598.782,210.9a.795.795,0,1,0,.782.795.79.79,0,0,0-.782-.795" transform="translate(-524.558 -185.36)" fill="#fff"/>
    <path id="path60" d="M599.981,230.2h-.646a.328.328,0,0,0-.335.3v6.444a.26.26,0,0,0,.112.211.387.387,0,0,0,.223.087h.646a.328.328,0,0,0,.335-.3V230.5a.328.328,0,0,0-.335-.3" transform="translate(-525.434 -202.264)" fill="#fff"/>
    <path id="path62" d="M621.079,235.359h-.534a.353.353,0,0,0-.335.248c-.2.844-.646,1.291-1.316,1.316-1.316-.037-1.415-1.875-1.415-2.434,0-1.117.385-2.334,1.477-2.359a1.366,1.366,0,0,1,1.279,1.254.356.356,0,0,0,.31.3h.584a.333.333,0,0,0,.31-.31,2.455,2.455,0,0,0-2.446-2.272h-.1c-1.862,0-2.694,1.738-2.694,3.464,0,1.577.708,3.427,2.682,3.427h.1a2.519,2.519,0,0,0,2.458-2.3.261.261,0,0,0-.062-.186.49.49,0,0,0-.3-.149" transform="translate(-540.499 -203.052)" fill="#fff"/>
    <path id="path64" d="M667.145,233.619h-3.017a1.784,1.784,0,0,1,1.552-1.763A1.62,1.62,0,0,1,667.145,233.619Zm-1.478-2.719c-2.036,0-2.967,1.8-2.967,3.477,0,2.086,1.155,3.439,2.943,3.439a2.686,2.686,0,0,0,2.67-1.776.229.229,0,0,0-.025-.2.3.3,0,0,0-.223-.149l-.571-.112a.367.367,0,0,0-.385.2,1.574,1.574,0,0,1-1.4,1.006,1.656,1.656,0,0,1-1.415-.919,2.877,2.877,0,0,1-.236-1.316h4.1a.339.339,0,0,0,.236-.1.274.274,0,0,0,.075-.186c.012-1.627-.733-3.365-2.794-3.365" transform="translate(-581.225 -202.877)" fill="#fff"/>
    <path id="path66" d="M717.811,234.19a3.215,3.215,0,0,0-1.3-.459l-.882-.161c-.633-.1-1.006-.273-1.006-.832,0-.757.944-.832,1.13-.832a1.409,1.409,0,0,1,1.341.795.347.347,0,0,0,.31.2.093.093,0,0,0,.062-.012l.546-.124a.419.419,0,0,0,.224-.161.228.228,0,0,0,.025-.2,2.351,2.351,0,0,0-2.5-1.5c-1.167,0-2.421.521-2.421,1.974,0,.993.621,1.627,1.862,1.875l.993.186c.546.1,1.105.286,1.105.869,0,.869-1.006.956-1.3.956a1.653,1.653,0,0,1-1.639-.956.327.327,0,0,0-.372-.211l-.571.124a.322.322,0,0,0-.211.149.288.288,0,0,0-.037.2,2.624,2.624,0,0,0,2.756,1.726h.037c1.279,0,2.645-.546,2.645-2.086a1.946,1.946,0,0,0-.795-1.515" transform="translate(-625.422 -202.877)" fill="#fff"/>
    <path id="path68" d="M536.285,117.238v-1.465a.366.366,0,0,1,.372-.372h6.556a.359.359,0,0,1,.373.372v1.254c0,.211-.174.484-.5.919L539.7,122.8a7.277,7.277,0,0,1,3.737.807.678.678,0,0,1,.348.571v1.564a.355.355,0,0,1-.484.335,7.539,7.539,0,0,0-6.928.012c-.224.124-.472-.124-.472-.335v-1.49a1.705,1.705,0,0,1,.248-1.006l3.936-5.649h-3.427a.366.366,0,0,1-.372-.372" transform="translate(-470.169 -101.717)" fill="#fff"/>
    <path id="path70" d="M329.559,125.162h-2a.385.385,0,0,1-.36-.335V114.584a.376.376,0,0,1,.385-.372h1.862a.376.376,0,0,1,.36.348V115.9h.037a2.748,2.748,0,0,1,5.227,0,2.948,2.948,0,0,1,5.066-.782c.633.857.509,2.111.509,3.216V124.8a.385.385,0,0,1-.385.372h-2a.38.38,0,0,1-.36-.372v-5.426a12.366,12.366,0,0,0-.062-1.924,1.037,1.037,0,0,0-1.18-.882,1.314,1.314,0,0,0-1.192.844,6.393,6.393,0,0,0-.186,1.962V124.8a.384.384,0,0,1-.385.372h-2a.38.38,0,0,1-.36-.372v-5.426c0-1.142.186-2.818-1.229-2.818-1.44,0-1.378,1.639-1.378,2.818V124.8a.348.348,0,0,1-.372.36" transform="translate(-287.381 -100.491)" fill="#fff"/>
    <path id="path72" d="M611.707,116c-1.477,0-1.564,2-1.564,3.253s-.012,3.924,1.552,3.924,1.627-2.16,1.627-3.477a9.524,9.524,0,0,0-.3-2.719A1.265,1.265,0,0,0,611.707,116Zm-.012-2.1c2.968,0,4.569,2.545,4.569,5.774,0,3.129-1.776,5.6-4.569,5.6-2.905,0-4.495-2.545-4.495-5.711s1.6-5.662,4.495-5.662" transform="translate(-532.616 -100.404)" fill="#fff"/>
    <path id="path74" d="M694.547,125.075H692.56a.38.38,0,0,1-.36-.372V114.459a.379.379,0,0,1,.385-.335h1.85a.387.387,0,0,1,.36.286v1.564h.037a2.716,2.716,0,0,1,2.719-2.073,2.628,2.628,0,0,1,2.334,1.2,6.52,6.52,0,0,1,.521,3.191v6.444a.378.378,0,0,1-.385.323h-2.011a.385.385,0,0,1-.36-.323v-5.562c0-1.117.137-2.756-1.254-2.756a1.3,1.3,0,0,0-1.155.819,4.458,4.458,0,0,0-.323,1.937v5.513a.369.369,0,0,1-.372.385" transform="translate(-607.062 -100.404)" fill="#fff"/>
    <path id="Pfad_163" data-name="Pfad 163" d="M459.024,122.487a2.771,2.771,0,0,1-.757-1.85v-3.1c0-1.316.1-2.533-.882-3.439a4.546,4.546,0,0,0-3-.993c-1.9,0-4.023.708-4.457,3.054a.357.357,0,0,0,.3.422l1.937.211a.423.423,0,0,0,.348-.372,1.522,1.522,0,0,1,1.6-1.2,1.31,1.31,0,0,1,1.117.521,2.517,2.517,0,0,1,.248,1.453v.261a13.256,13.256,0,0,0-3.75.7,3.386,3.386,0,0,0-2.123,3.265,2.837,2.837,0,0,0,2.992,3.116,3.954,3.954,0,0,0,3.29-1.453,4.877,4.877,0,0,0,1.142,1.329.415.415,0,0,0,.472-.05h0c.4-.36,1.117-.981,1.527-1.329A.4.4,0,0,0,459.024,122.487Zm-3.923-.894a1.629,1.629,0,0,1-1.378.906c-.77,0-1.217-.584-1.217-1.453,0-1.7,1.527-2.011,2.967-2.011v.435A4,4,0,0,1,455.1,121.593Z" transform="translate(-394.584 -99.703)" fill="#fff"/>
    <path id="Pfad_164" data-name="Pfad 164" d="M248.324,122.487a2.771,2.771,0,0,1-.757-1.85v-3.1c0-1.316.1-2.533-.882-3.439a4.547,4.547,0,0,0-3-.993c-1.9,0-4.023.708-4.457,3.054a.357.357,0,0,0,.3.422l1.937.211a.423.423,0,0,0,.348-.372,1.522,1.522,0,0,1,1.6-1.2,1.31,1.31,0,0,1,1.117.521,2.517,2.517,0,0,1,.248,1.453v.261a13.256,13.256,0,0,0-3.75.7,3.386,3.386,0,0,0-2.123,3.265,2.837,2.837,0,0,0,2.992,3.116,3.954,3.954,0,0,0,3.29-1.453,4.877,4.877,0,0,0,1.142,1.329.415.415,0,0,0,.472-.05h0c.4-.36,1.117-.981,1.527-1.329A.4.4,0,0,0,248.324,122.487Zm-3.936-.894a1.629,1.629,0,0,1-1.378.906c-.77,0-1.217-.584-1.217-1.453,0-1.7,1.527-2.011,2.967-2.011v.435A3.888,3.888,0,0,1,244.388,121.593Z" transform="translate(-210.045 -99.703)" fill="#fff"/>
  </g>
</svg>
