<svg xmlns="http://www.w3.org/2000/svg" width="165.52" height="105.961" viewBox="0 0 165.52 105.961">
  <g id="Gruppe_1314" data-name="Gruppe 1314" transform="translate(-16662 -14183)">
    <path id="XMLID_3_" d="M157.269,3.532h1.746c.473,0,.946.009,1.422.021a18,18,0,0,1,2.7.235,7.156,7.156,0,0,1,2.073.694,6.787,6.787,0,0,1,2.925,3.008,7.5,7.5,0,0,1,.674,2.124,19.288,19.288,0,0,1,.229,2.764c.013.482.019.964.021,1.457V99.2c0,.482-.008.964-.021,1.446a19.258,19.258,0,0,1-.231,2.774,7.478,7.478,0,0,1-.673,2.116,6.788,6.788,0,0,1-2.933,3.008,7.1,7.1,0,0,1-2.06.691,18.307,18.307,0,0,1-2.688.236c-.477.011-.954.017-1.441.02H13.57c-.476,0-.952-.009-1.411-.019a18.337,18.337,0,0,1-2.7-.235,7.122,7.122,0,0,1-2.075-.7,6.787,6.787,0,0,1-2.925-3,7.565,7.565,0,0,1-.675-2.127,19.19,19.19,0,0,1-.23-2.762c-.013-.484-.018-.964-.021-1.452V13.836c0-.485.008-.964.021-1.454a19.2,19.2,0,0,1,.231-2.771,7.553,7.553,0,0,1,.675-2.123,6.788,6.788,0,0,1,2.925-3A7.143,7.143,0,0,1,9.456,3.8a17.972,17.972,0,0,1,2.7-.236c.473-.013.945-.018,1.414-.021h143.7" transform="translate(16658.465 14179.468)" fill="#016fd0"/>
    <path id="Pfad_5675" data-name="Pfad 5675" d="M34.5,113.966,18.235,149.96H37.706l2.414-5.739h5.518l2.414,5.739H69.484v-4.38l1.91,4.38H82.48l1.91-4.473v4.473h44.574l5.42-5.59,5.075,5.59,22.894.046-16.316-17.943,16.316-18.1H139.814l-5.276,5.487-4.915-5.487H81.132l-4.164,9.29-4.262-9.29H53.276V118.2l-2.162-4.231Zm3.768,5.111h9.491l10.788,24.407V119.077h10.4l8.333,17.5,7.68-17.5H95.3V144.9H89.007l-.051-20.238L79.779,144.9H74.148l-9.229-20.238V144.9H51.969l-2.455-5.79H36.25L33.8,144.9H26.861Zm62.794,0h25.6l7.829,8.456,8.081-8.456H150.4L138.5,132.058,150.4,144.89h-8.184l-7.829-8.555-8.122,8.555h-25.2V119.077Zm-58.177,4.37-4.37,10.315h8.735Zm64.5.978v4.715h13.964v5.255H107.382v5.147h15.663l7.278-7.581-6.969-7.54H107.382Z" transform="translate(16654.766 14104.034)" fill="#fff"/>
  </g>
</svg>
