<svg xmlns="http://www.w3.org/2000/svg" width="862.25" height="288.225" viewBox="0 0 862.25 288.225"><g transform="translate(0 0)"><path d="M793.586,0H68.7c-2.642,0-5.253,0-7.888.014C58.609.03,56.42.071,54.193.107A95.219,95.219,0,0,0,39.754,1.38,48.026,48.026,0,0,0,26.057,5.9a46.388,46.388,0,0,0-11.663,8.493A45.1,45.1,0,0,0,5.9,26.072,47.565,47.565,0,0,0,1.4,39.786,93.62,93.62,0,0,0,.109,54.212C.042,56.421.035,58.638,0,60.847V227.4c.035,2.237.042,4.4.109,6.643A93.619,93.619,0,0,0,1.4,248.467a47.467,47.467,0,0,0,4.5,13.722,44.73,44.73,0,0,0,8.49,11.632,45.211,45.211,0,0,0,11.663,8.493,48.283,48.283,0,0,0,13.7,4.545,96.945,96.945,0,0,0,14.439,1.274c2.227.049,4.416.077,6.622.077,2.635.014,5.246.014,7.888.014H793.586c2.59,0,5.221,0,7.811-.014,2.2,0,4.447-.028,6.643-.077a95.673,95.673,0,0,0,14.411-1.274,49.027,49.027,0,0,0,13.75-4.545,45.235,45.235,0,0,0,11.653-8.493,46.082,46.082,0,0,0,8.514-11.632,47.588,47.588,0,0,0,4.461-13.722,97.329,97.329,0,0,0,1.337-14.425c.028-2.238.028-4.406.028-6.643.056-2.618.056-5.221.056-7.881V68.714c0-2.639,0-5.256-.056-7.867,0-2.21,0-4.426-.028-6.636a97.314,97.314,0,0,0-1.337-14.426,47.684,47.684,0,0,0-4.461-13.715A46.592,46.592,0,0,0,836.2,5.9a48.765,48.765,0,0,0-13.75-4.518A93.988,93.988,0,0,0,808.04.106c-2.2-.035-4.447-.077-6.643-.091C798.807,0,796.176,0,793.586,0Z" transform="translate(0 0)" fill="#a6a6a6"/><path d="M55.432,276.489c-2.2,0-4.338-.028-6.516-.077a91.423,91.423,0,0,1-13.468-1.175,42.4,42.4,0,0,1-11.938-3.948,38.952,38.952,0,0,1-10.066-7.325A38.34,38.34,0,0,1,6.091,253.9a41.229,41.229,0,0,1-3.913-11.941,89.446,89.446,0,0,1-1.2-13.51c-.046-1.52-.105-6.579-.105-6.579V55.417s.064-4.982.106-6.446A89.135,89.135,0,0,1,2.172,35.481,41.472,41.472,0,0,1,6.088,23.505,38.719,38.719,0,0,1,13.4,13.432a40.1,40.1,0,0,1,10.1-7.367A41.959,41.959,0,0,1,35.42,2.145,90.69,90.69,0,0,1,48.934.963l6.5-.088H795.944l6.579.092a89.242,89.242,0,0,1,13.391,1.172,42.789,42.789,0,0,1,12.04,3.948,40.306,40.306,0,0,1,17.4,17.437A41.524,41.524,0,0,1,849.212,35.4,93.648,93.648,0,0,1,850.464,49c.021,2.041.021,4.233.021,6.414.057,2.7.057,5.274.057,7.867v150.8c0,2.618,0,5.172-.057,7.747,0,2.343,0,4.49-.028,6.7a91.731,91.731,0,0,1-1.231,13.356,41.356,41.356,0,0,1-3.891,12.033,39.488,39.488,0,0,1-7.318,9.985,39,39,0,0,1-10.083,7.368,42.239,42.239,0,0,1-12.019,3.962,90.383,90.383,0,0,1-13.469,1.175c-2.111.049-4.32.077-6.466.077l-7.811.014Z" transform="translate(5.418 5.431)"/><g transform="translate(71.851 62.836)"><path d="M116.595,59.568a35.659,35.659,0,0,1,16.98-29.918A36.5,36.5,0,0,0,104.817,14.1c-12.1-1.27-23.83,7.24-30,7.24-6.285,0-15.779-7.114-26-6.9a38.3,38.3,0,0,0-32.23,19.656C2.654,58.222,13.048,93.681,26.4,113.184c6.679,9.55,14.485,20.217,24.7,19.839,9.995-.415,13.727-6.373,25.792-6.373,11.952,0,15.454,6.373,25.875,6.133,10.725-.174,17.482-9.592,23.926-19.233A78.987,78.987,0,0,0,137.63,91.266,34.457,34.457,0,0,1,116.595,59.568Z" transform="translate(-9.972 23.876)" fill="#fff"/><path d="M42.184,33.872A35.109,35.109,0,0,0,50.215,8.72,35.721,35.721,0,0,0,27.1,20.679,33.407,33.407,0,0,0,18.861,44.9,29.536,29.536,0,0,0,42.184,33.872Z" transform="translate(44.756 -8.72)" fill="#fff"/><g transform="translate(176.218 65.937)"><path d="M91.171,83.372H57.064l-8.191,24.185H34.427L66.733,18.078H81.742l32.306,89.479H99.355ZM60.6,72.212H87.632L74.3,32.961h-.373Z" transform="translate(-34.427 -16.586)" fill="#fff"/><path d="M108.083,54.663c0,20.273-10.851,33.3-27.225,33.3A22.116,22.116,0,0,1,60.332,76.547h-.31v32.313H46.631V22.041H59.593V32.891h.246A23.141,23.141,0,0,1,80.612,21.358C97.169,21.358,108.083,34.446,108.083,54.663Zm-13.764,0c0-13.208-6.826-21.891-17.24-21.891-10.231,0-17.113,8.866-17.113,21.891,0,13.145,6.882,21.947,17.113,21.947C87.494,76.61,94.319,67.99,94.319,54.663Z" transform="translate(41.306 3.693)" fill="#fff"/><path d="M118.048,54.663c0,20.273-10.851,33.3-27.225,33.3A22.116,22.116,0,0,1,70.3,76.547h-.31v32.313H56.6V22.041H69.558V32.891H69.8A23.142,23.142,0,0,1,90.576,21.358C107.134,21.358,118.048,34.446,118.048,54.663Zm-13.764,0c0-13.208-6.826-21.891-17.24-21.891-10.231,0-17.113,8.866-17.113,21.891,0,13.145,6.882,21.947,17.113,21.947,10.414,0,17.24-8.62,17.24-21.947Z" transform="translate(103.144 3.693)" fill="#fff"/><path d="M83.516,83.911c.992,8.873,9.612,14.7,21.392,14.7,11.287,0,19.407-5.826,19.407-13.827,0-6.945-4.9-11.1-16.494-13.954l-11.6-2.794C79.793,64.067,72.166,56.383,72.166,43.914c0-15.439,13.454-26.043,32.559-26.043,18.907,0,31.869,10.6,32.306,26.043H123.512c-.809-8.93-8.191-14.32-18.978-14.32S86.366,35.048,86.366,42.985c0,6.326,4.715,10.048,16.248,12.9l9.858,2.421c18.359,4.342,25.987,11.716,25.987,24.8,0,16.74-13.335,27.225-34.543,27.225-19.844,0-33.241-10.238-34.107-26.423Z" transform="translate(185.132 -17.871)" fill="#fff"/><path d="M103.1,19.3V34.738h12.406v10.6H103.1V81.307c0,5.587,2.484,8.191,7.937,8.191a41.843,41.843,0,0,0,4.4-.31V99.729a36.772,36.772,0,0,1-7.438.619c-13.208,0-18.359-4.961-18.359-17.613V45.343H80.163v-10.6h9.485V19.3Z" transform="translate(249.387 -9.005)" fill="#fff"/><path d="M86.065,54.755c0-20.526,12.089-33.424,30.94-33.424,18.915,0,30.947,12.9,30.947,33.424,0,20.582-11.969,33.424-30.947,33.424S86.065,75.338,86.065,54.755Zm48.244,0c0-14.08-6.453-22.391-17.3-22.391s-17.3,8.374-17.3,22.391c0,14.137,6.446,22.384,17.3,22.384s17.3-8.247,17.3-22.384Z" transform="translate(286.015 3.6)" fill="#fff"/><path d="M96.186,22.04h12.772v11.1h.31a15.56,15.56,0,0,1,15.692-11.786,20.651,20.651,0,0,1,4.588.5V34.382a18.719,18.719,0,0,0-6.017-.809,13.493,13.493,0,0,0-13.954,15.009V87.277H96.186Z" transform="translate(348.822 3.693)" fill="#fff"/><path d="M160.065,68.21c-1.8,11.843-13.335,19.97-28.091,19.97-18.978,0-30.757-12.715-30.757-33.115,0-20.463,11.843-33.734,30.195-33.734,18.049,0,29.4,12.4,29.4,32.179V58.1H114.735v.809a16.991,16.991,0,0,0,17.55,18.478A14.759,14.759,0,0,0,147.35,68.21ZM114.8,48.739h32.615a15.689,15.689,0,0,0-16-16.557A16.515,16.515,0,0,0,114.8,48.739Z" transform="translate(380.044 3.6)" fill="#fff"/></g></g></g><g transform="translate(257.03 60.794)"><path d="M51.2,8.773A19.02,19.02,0,0,1,71.431,30.136c0,13.736-7.424,21.631-20.231,21.631H35.671V8.773ZM42.349,45.687h8.106A13.517,13.517,0,0,0,64.634,30.224,13.554,13.554,0,0,0,50.455,14.849H42.349Z" transform="translate(-35.671 -6.655)" fill="#fff"/><path d="M41.743,26.943a15.371,15.371,0,1,1,30.6,0,15.374,15.374,0,1,1-30.6,0Zm24.016,0c0-7.033-3.159-11.146-8.7-11.146-5.566,0-8.7,4.113-8.7,11.146,0,7.089,3.131,11.171,8.7,11.171,5.545,0,8.7-4.109,8.7-11.171Z" transform="translate(1.561 1.932)" fill="#fff"/><path d="M82.625,42.641H75.983l-6.706-23.9H68.77l-6.678,23.9H55.513L46.569,10.195h6.495l5.812,24.758h.479l6.671-24.758h6.143L78.84,34.953h.507l5.784-24.758h6.4Z" transform="translate(31.96 2.471)" fill="#fff"/><path d="M53.854,10.762h6.164v5.154H60.5a9.713,9.713,0,0,1,9.682-5.781A10.553,10.553,0,0,1,81.409,22.2v21h-6.4v-19.4C75.006,18.6,72.74,16,68,16a7.443,7.443,0,0,0-7.747,8.222V43.208h-6.4Z" transform="translate(77.163 1.904)" fill="#fff"/><path d="M59.094,8.437h6.4V53.549h-6.4Z" transform="translate(109.682 -8.437)" fill="#fff"/><path d="M61.28,26.944a15.373,15.373,0,1,1,30.606,0,15.375,15.375,0,1,1-30.606,0Zm24.016,0c0-7.033-3.159-11.146-8.7-11.146-5.566,0-8.7,4.113-8.7,11.146,0,7.089,3.131,11.171,8.7,11.171,5.545,0,8.7-4.109,8.7-11.171Z" transform="translate(122.8 1.932)" fill="#fff"/><path d="M66.4,34c0-5.84,4.349-9.208,12.068-9.686l8.789-.507v-2.8c0-3.427-2.266-5.362-6.643-5.362-3.575,0-6.052,1.312-6.762,3.606h-6.2c.654-5.573,5.9-9.148,13.257-9.148,8.134,0,12.722,4.05,12.722,10.9V43.18H87.469v-4.56h-.507a10.916,10.916,0,0,1-9.746,5.094A9.8,9.8,0,0,1,66.4,34Zm20.857-2.772V28.519l-7.923.507c-4.468.3-6.495,1.819-6.495,4.679,0,2.92,2.533,4.62,6.017,4.62a7.649,7.649,0,0,0,8.4-7.093Z" transform="translate(155.027 1.932)" fill="#fff"/><path d="M71.348,37.312c0-10.252,5.271-16.747,13.468-16.747a10.693,10.693,0,0,1,9.95,5.692h.478V8.437h6.4V53.549H95.512V48.423h-.507a11.261,11.261,0,0,1-10.189,5.661C76.562,54.084,71.348,47.589,71.348,37.312Zm6.615,0c0,6.882,3.244,11.023,8.669,11.023,5.4,0,8.732-4.2,8.732-10.995,0-6.762-3.371-11.023-8.732-11.023-5.39,0-8.67,4.169-8.67,10.995Z" transform="translate(185.727 -8.437)" fill="#fff"/><path d="M79.293,26.943a15.371,15.371,0,1,1,30.6,0,15.374,15.374,0,1,1-30.6,0Zm24.016,0c0-7.033-3.159-11.146-8.7-11.146-5.566,0-8.7,4.113-8.7,11.146,0,7.09,3.131,11.171,8.7,11.171C100.149,38.113,103.309,34,103.309,26.943Z" transform="translate(234.576 1.932)" fill="#fff"/><path d="M84.669,10.762h6.164v5.154h.478a9.713,9.713,0,0,1,9.683-5.781A10.553,10.553,0,0,1,112.225,22.2v21h-6.4v-19.4c0-5.214-2.266-7.807-7-7.807a7.443,7.443,0,0,0-7.747,8.222V43.208h-6.4Z" transform="translate(268.394 1.904)" fill="#fff"/><path d="M103.472,9.074V17.3h7.03v5.394h-7.03V39.377c0,3.4,1.4,4.887,4.588,4.887a21.375,21.375,0,0,0,2.442-.148V49.45a21.006,21.006,0,0,1-3.483.327c-7.121,0-9.957-2.505-9.957-8.761V22.693H91.911V17.3h5.151V9.074Z" transform="translate(313.33 -4.486)" fill="#fff"/><path d="M95.7,8.437h6.347v17.88h.507a9.984,9.984,0,0,1,9.893-5.812,10.689,10.689,0,0,1,11.174,12.1V53.549h-6.41V34.181c0-5.183-2.414-7.807-6.938-7.807a7.58,7.58,0,0,0-8.17,8.226v18.95H95.7Z" transform="translate(336.873 -8.437)" fill="#fff"/><path d="M129.9,34.42a13.172,13.172,0,0,1-14.059,9.387A14.738,14.738,0,0,1,100.849,27.06a14.965,14.965,0,0,1,14.96-16.951c9.028,0,14.474,6.168,14.474,16.357V28.7H107.372v.359a8.576,8.576,0,0,0,8.641,9.3,7.777,7.777,0,0,0,7.719-3.934ZM107.372,23.964h16.388a7.829,7.829,0,0,0-7.987-8.405,8.3,8.3,0,0,0-8.4,8.405Z" transform="translate(367.94 1.932)" fill="#fff"/></g></svg>