<?xml version="1.0" encoding="utf-8"?>
<!-- Generator: Adobe Illustrator 25.4.1, SVG Export Plug-In . SVG Version: 6.00 Build 0)  -->
<!DOCTYPE svg PUBLIC "-//W3C//DTD SVG 1.1//EN" "http://www.w3.org/Graphics/SVG/1.1/DTD/svg11.dtd" [
	<!ENTITY ns_extend "http://ns.adobe.com/Extensibility/1.0/">
	<!ENTITY ns_ai "http://ns.adobe.com/AdobeIllustrator/10.0/">
	<!ENTITY ns_graphs "http://ns.adobe.com/Graphs/1.0/">
	<!ENTITY ns_vars "http://ns.adobe.com/Variables/1.0/">
	<!ENTITY ns_imrep "http://ns.adobe.com/ImageReplacement/1.0/">
	<!ENTITY ns_sfw "http://ns.adobe.com/SaveForWeb/1.0/">
	<!ENTITY ns_custom "http://ns.adobe.com/GenericCustomNamespace/1.0/">
	<!ENTITY ns_adobe_xpath "http://ns.adobe.com/XPath/1.0/">
]>
<svg version="1.1" id="Ebene_1" xmlns:x="&ns_extend;" xmlns:i="&ns_ai;" xmlns:graph="&ns_graphs;"
	 xmlns="http://www.w3.org/2000/svg" xmlns:xlink="http://www.w3.org/1999/xlink" x="0px" y="0px" viewBox="0 0 1000 1000"
	 style="enable-background:new 0 0 1000 1000;" xml:space="preserve">
<style type="text/css">
	.st0{opacity:0.67;}
	.st1{clip-path:url(#SVGID_00000170980048512702890080000002574061318169892524_);fill:#ECECEC;}
	.st2{opacity:0.67;fill:#C6B3A0;}
</style>
<metadata>
	<sfw  xmlns="&ns_sfw;">
		<slices></slices>
		<sliceSourceBounds  bottomLeftOrigin="true" height="822" width="666.7" x="188.5" y="89"></sliceSourceBounds>
	</sfw>
</metadata>
<g class="st0">
	<g>
		<g>
			<g>
				<defs>
					<rect id="SVGID_1_" x="188.5" y="89" width="666.7" height="822"/>
				</defs>
				<clipPath id="SVGID_00000115496303906772742520000013593430585031851918_">
					<use xlink:href="#SVGID_1_"  style="overflow:visible;"/>
				</clipPath>
				<path style="clip-path:url(#SVGID_00000115496303906772742520000013593430585031851918_);fill:#ECECEC;" d="M721.9,768.9
					L721.9,768.9c-48.2,0-89.4-17.4-122.7-51.8c-11.9-12.3-22-26.2-30.5-40.7c-8.6,7.9-18.1,15.7-28.5,23.4
					c-19.3,14.1-39.6,26-59.5,35.3c-20-9.3-40.2-21.2-59.5-35.3c-19.3-14.1-35.5-28.9-48.2-43.5c-20.8-23.9-32.3-48.9-32.2-67.2
					h-56.1c-52.8,0-101.7,43.2-95.6,95.6c5.9,50.7,50.7,41.5,65.1,140.2c8.9,60.9,35.5,86.2,88.3,86.2h276.7
					c52.8,0,79.4-25.2,88.3-86.2c3.6-24.6,9.1-42.3,15.3-56C722.5,768.9,722.2,768.9,721.9,768.9"/>
			</g>
		</g>
	</g>
</g>
<path class="st2" d="M835.3,541.9c9.3,108.5-99.2,114.5-133.4,54.2c-29.1-51.3,28.2-149.6,39.3-226.8c4.3-29.6,8.5-71.8-2.7-106.7
	c0,0-3.3-11.3-3.3-11.3c-19-76.2-97-187.4-255.8-154.5C282.8,60,194.6,263.7,232.5,376.2c73.8,219.1-46.6,185.6-35.4,239
	c19.9-23.7,47.1-38.6,87.7-39.8h97.4c15-9.2,21.3-21.8,24.5-57.6c-59.7-33.5-102.9-103.4-102.9-168.3c0-8,0.4-15.7,1.2-23.2
	c5.5,0.6,11.1,1,16.8,1c84.3,0,152.6-68.3,152.7-152.5c0.2,0,0.3,0,0.5,0c6.8,88.2,89.2,59.4,128,157.6c6.7,17,5,40,1.2,53.6
	c-10.5,37.1-52.1,92.3-54.8,174.7c-1.6,50.9,45,214.4,199.8,192.3C814.6,743.6,891.2,664.7,835.3,541.9z"/>
</svg>
