<?xml version="1.0" encoding="utf-8"?>
<!-- Generator: Adobe Illustrator 25.4.1, SVG Export Plug-In . SVG Version: 6.00 Build 0)  -->
<!DOCTYPE svg PUBLIC "-//W3C//DTD SVG 1.1//EN" "http://www.w3.org/Graphics/SVG/1.1/DTD/svg11.dtd" [
	<!ENTITY ns_extend "http://ns.adobe.com/Extensibility/1.0/">
	<!ENTITY ns_ai "http://ns.adobe.com/AdobeIllustrator/10.0/">
	<!ENTITY ns_graphs "http://ns.adobe.com/Graphs/1.0/">
	<!ENTITY ns_vars "http://ns.adobe.com/Variables/1.0/">
	<!ENTITY ns_imrep "http://ns.adobe.com/ImageReplacement/1.0/">
	<!ENTITY ns_sfw "http://ns.adobe.com/SaveForWeb/1.0/">
	<!ENTITY ns_custom "http://ns.adobe.com/GenericCustomNamespace/1.0/">
	<!ENTITY ns_adobe_xpath "http://ns.adobe.com/XPath/1.0/">
]>
<svg version="1.1" id="Ebene_1" xmlns:x="&ns_extend;" xmlns:i="&ns_ai;" xmlns:graph="&ns_graphs;"
	 xmlns="http://www.w3.org/2000/svg" xmlns:xlink="http://www.w3.org/1999/xlink" x="0px" y="0px" viewBox="0 0 1000 1000"
	 style="enable-background:new 0 0 1000 1000;" xml:space="preserve">
<style type="text/css">
	.st0{opacity:0.67;}
	.st1{clip-path:url(#SVGID_00000147917848551137203250000017551130585017378991_);fill:#C6B3A0;}
	.st2{clip-path:url(#SVGID_00000135659146099368122760000015305476315648911279_);fill:#ECECEC;}
	.st3{clip-path:url(#SVGID_00000067233896346715197710000002369048000953246095_);fill:#C6B3A0;}
	.st4{clip-path:url(#SVGID_00000158004727393092757700000016691052392211832212_);fill:#C6B3A0;}
</style>
<metadata>
	<sfw  xmlns="&ns_sfw;">
		<slices></slices>
		<sliceSourceBounds  bottomLeftOrigin="true" height="874.3" width="662.2" x="168.9" y="62.8"></sliceSourceBounds>
	</sfw>
</metadata>
<g class="st0">
	<g>
		<defs>
			<rect id="SVGID_1_" x="168.9" y="62.8" width="662.2" height="874.3"/>
		</defs>
		<clipPath id="SVGID_00000002346047384940212610000005123482774277762234_">
			<use xlink:href="#SVGID_1_"  style="overflow:visible;"/>
		</clipPath>
		<path style="clip-path:url(#SVGID_00000002346047384940212610000005123482774277762234_);fill:#C6B3A0;" d="M405.4,540.3
			c19.3,20.9,54.3,34.9,94.4,34.9c40.1,0,75.1-14,94.4-34.9c-22.5,12.4-56.5,20.3-94.4,20.3C461.8,560.6,427.9,552.7,405.4,540.3"/>
	</g>
	<g>
		<defs>
			<rect id="SVGID_00000038390435155378797640000001378000685456136597_" x="168.9" y="62.8" width="662.2" height="874.3"/>
		</defs>
		<clipPath id="SVGID_00000086670333564311836820000015652730473228997782_">
			<use xlink:href="#SVGID_00000038390435155378797640000001378000685456136597_"  style="overflow:visible;"/>
		</clipPath>
		<path style="clip-path:url(#SVGID_00000086670333564311836820000015652730473228997782_);fill:#ECECEC;" d="M752.2,755.6H640v-9.2
			h112.1V755.6z M723.7,594.9h-97.2L500,937.2h223.7c59.3,0,107.4-48.1,107.4-107.4V702.3C831.1,643,783,594.9,723.7,594.9
			 M276.3,594.9c-59.3,0-107.4,48.1-107.4,107.4v127.5c0,59.3,48.1,107.4,107.4,107.4H500L373.5,594.9H276.3z"/>
	</g>
	<g>
		<defs>
			<rect id="SVGID_00000168832656864301808810000012998219902779327127_" x="168.9" y="62.8" width="662.2" height="874.3"/>
		</defs>
		<clipPath id="SVGID_00000072260374668483054930000010012109617361480064_">
			<use xlink:href="#SVGID_00000168832656864301808810000012998219902779327127_"  style="overflow:visible;"/>
		</clipPath>
		<path style="clip-path:url(#SVGID_00000072260374668483054930000010012109617361480064_);fill:#C6B3A0;" d="M475,660.7
			l-26.9,135.5L499.8,936l51.6-139.8l-26.9-135.5l34.4-51.9c-17.1,7.2-37.3,11.4-59.2,11.4c-21.9,0-42.1-4.3-59.2-11.4L475,660.7z"
			/>
	</g>
	<g>
		<defs>
			<rect id="SVGID_00000142897546240870772060000003486786892344863138_" x="168.9" y="62.8" width="662.2" height="874.3"/>
		</defs>
		<clipPath id="SVGID_00000034067234273119891480000016717184906077246389_">
			<use xlink:href="#SVGID_00000142897546240870772060000003486786892344863138_"  style="overflow:visible;"/>
		</clipPath>
		<path style="clip-path:url(#SVGID_00000034067234273119891480000016717184906077246389_);fill:#C6B3A0;" d="M688.3,179.4
			c-6-26.6-16.6-47.3-29.5-61.7c-12.9-14.4-27.2-18.5-37.5-15c-4.6-12.9-14.6-22.6-35.2-29.5c-20.6-6.9-54.7-12.2-89.9-9.7
			c-35.2,2.5-81.9,12.2-113.8,31.7c-31.9,19.4-53.1,50.8-62.4,74.9c-9.3,24.1-12.6,45.3-8.6,75.7c3.1,23.9,11.1,50.4,13.2,55.3
			c5,11.2,10.5,31.4,10.7,25.4c3.6-101.7,15.6-131.7,25.5-147.9c10-16.2,33.1-22.6,44.3-23c11.2-0.5,20.2,0.5,40.1,0
			c19.9-0.5,60-1.2,85.9-1.2c25.9,0,49.3,1.6,62.7-4.2s19.4-20.7,22.6-29.1c0,4.7,0.3,9.9-0.7,16.5c-0.8,5.2-2.2,9.5-3.5,13.8
			c-0.5,1.5,0.1,3.2,1.4,4.1c2.2,1.7,5.2,3.6,11.5,9.5c8.5,8,19.1,26.7,27.1,51.8c8,25.1,7.8,120.9,11.8,109.2
			C678,285.4,694.3,225.5,688.3,179.4"/>
	</g>
</g>
</svg>
