<svg xmlns="http://www.w3.org/2000/svg" width="650.949" height="149.388" viewBox="0 0 650.949 149.388">
  <defs>
    <style>
      .cls-1 {
        fill: #e2007a;
        stroke: rgba(0,0,0,0);
        stroke-miterlimit: 10;
      }
    </style>
  </defs>
  <path id="Vereinigungsmenge_9" data-name="Vereinigungsmenge 9" class="cls-1" d="M392.822,131.972c-9.287-15.118-12.092-36.288-12.092-59.4C380.73,28.512,392.176,0,426.087,0,460.864,0,470.8,31.534,470.8,75.164c0,42.551-9.719,73.224-45.357,73.224C402.974,148.388,394.553,134.781,392.822,131.972Zm22.251-97.2c-2.593,7.13-3.025,22.681-3.025,40.825,0,12.312,0,26.351,2.593,36.5,1.511,5.832,4.1,10.585,11.446,10.585,7.992,0,10.368-5.186,11.663-12.745,1.732-9.935,1.732-35.205,1.732-37.149,0-8.857,0-29.161-2.813-37.8-2.373-7.126-5.615-9.287-11.23-9.287C420.9,25.7,417.446,28.3,415.073,34.772Zm60.846,60.049V2.159h29.594v91.8c0,17.927,1.511,28.08,14.685,28.08,14.044,0,14.256-12.742,14.256-29.591V2.159h25.053V92.444c0,25.486-1.511,55.942-41.25,55.942C485.425,148.387,475.919,131.755,475.919,94.821ZM0,76.028C0,42.766,7.775,0,47.088,0,81.865,0,87.264,32.614,88.775,48.814L64.367,53.351C61.99,37.367,60.262,25.7,47.3,25.7c-7.556,0-11.014,3.671-13.388,10.148-3.242,9.506-3.458,30.239-3.458,41.69,0,34.556,4.537,45.141,17.062,45.141,8.424,0,15.554-3.672,15.77-28.509H45.361V70.2h43.63v76.027H76.246l-3.455-17.278c-4.966,10.368-10.8,19.438-28.728,19.438C11.667,148.387,0,118.8,0,76.028Zm348.056,70.2V64.149c0-9.287.217-15.335,1.511-43.63-1.294,9.286-4.749,34.776-6.264,42.335l-17.5,83.372H307.232L290.387,61.559c-1.944-9.935-4.1-27.433-5.615-41.04.216,11.23.861,28.941.861,40.175v85.532H262.091V2.159h40.6l11.018,60.7c2.593,13.391,3.671,28.3,4.537,41.257A379.829,379.829,0,0,1,324.3,59.828L336.61,2.159h39.742V146.227Zm-254.318,0V2.159H123.33v117.5h36.5v26.564Zm524.9,0-16.2-56.588h-9.286v56.588H564.209V2.158h37.153c15.547,0,24.408.865,31.964,7.775,13.394,12.528,13.394,29.594,13.394,34.992,0,27.214-12.1,34.777-18.793,38.881l21.819,62.42ZM593.154,65.879h8.208c11.444,0,15.98-7.563,15.98-21.17,0-14.9-6.477-19.871-15.98-19.871h-8.208ZM229.911,146.225l-5.831-31.1H195.568l-5.615,31.1H163.384L196.434,2.157H227.1l32.616,144.068Zm-23.542-94.17L198.594,91.8h22.247L212.85,53.349c-1.3-5.831-2.377-11.23-3.026-24.191C208.958,35.206,208.1,43.2,206.369,52.055Z" transform="translate(0.5 0.5)"/>
</svg>
