<svg xmlns="http://www.w3.org/2000/svg" width="165.52" height="105.961" viewBox="0 0 165.52 105.961">
  <defs>
    <style>
      .cls-1 {
        fill: #fff;
      }

      .cls-2 {
        fill: #616161;
      }

      .cls-3 {
        fill: #4285f4;
      }

      .cls-4 {
        fill: #34a853;
      }

      .cls-5 {
        fill: #fabb05;
      }

      .cls-6 {
        fill: #e94235;
      }
    </style>
  </defs>
  <g id="Gruppe_1312" data-name="Gruppe 1312" transform="translate(-16475 -14315.606)">
    <path id="XMLID_3_" class="cls-1" d="M157.269,3.532h1.746c.473,0,.946.009,1.422.021a18,18,0,0,1,2.7.235,7.156,7.156,0,0,1,2.073.694,6.787,6.787,0,0,1,2.925,3.008,7.5,7.5,0,0,1,.674,2.124,19.288,19.288,0,0,1,.229,2.764c.013.482.019.964.021,1.457V99.2c0,.482-.008.964-.021,1.446a19.258,19.258,0,0,1-.231,2.774,7.478,7.478,0,0,1-.673,2.116,6.788,6.788,0,0,1-2.933,3.008,7.1,7.1,0,0,1-2.06.691,18.307,18.307,0,0,1-2.688.236c-.477.011-.954.017-1.441.02H13.57c-.476,0-.952-.009-1.411-.019a18.337,18.337,0,0,1-2.7-.235,7.122,7.122,0,0,1-2.075-.7,6.787,6.787,0,0,1-2.925-3,7.565,7.565,0,0,1-.675-2.127,19.19,19.19,0,0,1-.23-2.762c-.013-.484-.018-.964-.021-1.452V13.836c0-.485.008-.964.021-1.454a19.2,19.2,0,0,1,.231-2.771,7.553,7.553,0,0,1,.675-2.123,6.788,6.788,0,0,1,2.925-3A7.143,7.143,0,0,1,9.456,3.8a17.972,17.972,0,0,1,2.7-.236c.473-.013.945-.018,1.414-.021h143.7" transform="translate(16471.465 14312.074)"/>
    <g id="Gruppe_1084" data-name="Gruppe 1084" transform="translate(2478.114 17840.91)">
      <path id="Letter_p" data-name="Letter p" class="cls-2" d="M243.419,61.837V76.4H238.79V40.451h12.251a11.048,11.048,0,0,1,7.916,3.086,10.384,10.384,0,0,1,0,15.214,11.063,11.063,0,0,1-7.916,3.086Zm0-16.973V57.393h7.715a6.172,6.172,0,0,0,4.629-1.852,6.064,6.064,0,0,0,1.852-4.4,6.434,6.434,0,0,0-6.434-6.265h-7.715Z" transform="translate(13832.042 -3534.077)"/>
      <path id="Letter_a" data-name="Letter a" class="cls-2" d="M265.626,47.287a11.387,11.387,0,0,1,8.085,2.747,9.721,9.721,0,0,1,2.963,7.5V72.7h-4.4V69.275h-.231a8.749,8.749,0,0,1-7.622,4.212,9.891,9.891,0,0,1-6.82-2.407,7.715,7.715,0,0,1-2.731-6.018A7.268,7.268,0,0,1,257.757,59a12.1,12.1,0,0,1,7.715-2.253,13.532,13.532,0,0,1,6.758,1.543V57.239a5.308,5.308,0,0,0-1.9-4.1,6.573,6.573,0,0,0-4.459-1.651,7.005,7.005,0,0,0-6.172,3.271l-4.074-2.546a11.3,11.3,0,0,1,10-4.922ZM259.7,65.139a3.641,3.641,0,0,0,1.543,3.009,5.648,5.648,0,0,0,3.6,1.2,7.329,7.329,0,0,0,5.184-2.16,6.789,6.789,0,0,0,2.3-5.076,9.459,9.459,0,0,0-6.018-1.713,7.947,7.947,0,0,0-4.629,1.342,4.1,4.1,0,0,0-1.975,3.395Z" transform="translate(13840.772 -3530.375)"/>
      <path id="Letter_y" data-name="Letter y" class="cls-2" d="M293.946,47.79l-15.43,35.489h-4.768l5.725-12.344L269.32,47.9h5.03l7.314,17.667h.093l7.129-17.775Z" transform="translate(13848.621 -3530.091)"/>
      <path id="Blue_500" data-name="Blue 500" class="cls-3" d="M236.83,53.936a24.689,24.689,0,0,0-.386-4.336H217.08v7.946h11.156a9.628,9.628,0,0,1-4.151,6.4v5.138h6.65a20.167,20.167,0,0,0,6.1-15.152Z" transform="translate(13820.255 -3529.108)"/>
      <path id="Green_500" data-name="Green 500" class="cls-4" d="M230.569,61.2a12.481,12.481,0,0,1-18.578-6.542H205.14v5.308a20.6,20.6,0,0,0,18.423,11.356,19.627,19.627,0,0,0,13.656-4.984Z" transform="translate(13813.771 -3526.36)"/>
      <path id="Yellow_500" data-name="Yellow 500" class="cls-5" d="M212.114,55.368a12.468,12.468,0,0,1,.648-3.95V46.11h-6.851a20.661,20.661,0,0,0,0,18.516l6.851-5.323a12.345,12.345,0,0,1-.648-3.935Z" transform="translate(13813 -3531.003)"/>
      <path id="Red_500" data-name="Red 500" class="cls-6" d="M223.574,46.851a11.2,11.2,0,0,1,7.916,3.086l5.848-5.817a19.812,19.812,0,0,0-13.794-5.37A20.6,20.6,0,0,0,205.12,50.107l6.851,5.308A12.344,12.344,0,0,1,223.574,46.851Z" transform="translate(13813.761 -3535)"/>
    </g>
  </g>
</svg>
