<?xml version="1.0" encoding="utf-8"?>
<!-- Generator: Adobe Illustrator 16.0.4, SVG Export Plug-In . SVG Version: 6.00 Build 0)  -->
<!DOCTYPE svg PUBLIC "-//W3C//DTD SVG 1.1//EN" "http://www.w3.org/Graphics/SVG/1.1/DTD/svg11.dtd">
<svg fill="white" version="1.1" id="Ebene_1" xmlns="http://www.w3.org/2000/svg" xmlns:xlink="http://www.w3.org/1999/xlink" x="0px" y="0px"
	 width="113.39px" height="113.39px" viewBox="0 0 113.39 113.39" enable-background="new 0 0 113.39 113.39" xml:space="preserve">
<g>
	<defs>
		<rect id="SVGID_1_" y="0.004" width="113.386" height="113.387"/>
	</defs>
	<clipPath id="SVGID_2_">
		<use xlink:href="#SVGID_1_"  overflow="visible"/>
	</clipPath>
	<path clip-path="url(#SVGID_2_)" d="M56.693,91.074c-7.164,0-13.811-2.195-19.316-5.943l47.75-47.75
		c3.749,5.506,5.943,12.153,5.943,19.317C91.07,75.682,75.677,91.074,56.693,91.074 M56.693,22.32
		c7.164,0,13.811,2.194,19.316,5.942l-47.75,47.751c-3.749-5.506-5.943-12.152-5.943-19.316
		C22.316,37.713,37.709,22.32,56.693,22.32 M56.693,9.43c-26.105,0-47.268,21.163-47.268,47.268s21.163,47.267,47.268,47.267
		s47.268-21.162,47.268-47.267S82.798,9.43,56.693,9.43"/>
</g>
</svg>
