<svg xmlns="http://www.w3.org/2000/svg" width="24" height="24" fill="none"><g clip-path="url(#a)"><path fill="#E96160" d="M19.97 10v8c0 3-1 4-4 4h-8c-3 0-4-1-4-4v-8h16Z"/><path fill="#CD494C" d="M21.5 7v1a1.8 1.8 0 0 1-2 2h-15a1.78 1.78 0 0 1-2-2V7a1.78 1.78 0 0 1 2-2h15a1.8 1.8 0 0 1 2 2Z"/><path fill="#FDBC4B" d="M11.64 5H6.12a.936.936 0 0 1 .03-1.3l1.42-1.42a.96.96 0 0 1 1.35 0L11.64 5ZM17.87 5h-5.52l2.72-2.72a.96.96 0 0 1 1.35 0l1.42 1.42c.36.35.37.93.03 1.3Z"/><path fill="#FFDB70" d="M8.94 10v5.14c0 .55.44 1 1 1 .2 0 .39-.06.55-.16l.94-.62a1 1 0 0 1 1.1 0l.89.6c.46.3 1.08.18 1.39-.29.11-.16.16-.35.16-.54V10H8.94Z"/></g><defs><clipPath id="a"><path fill="#fff" d="M0 0h24v24H0z"/></clipPath></defs></svg>