<svg width="51" height="50" viewBox="0 0 51 50" fill="none" xmlns="http://www.w3.org/2000/svg">
<g id="Ebene_1" clip-path="url(#clip0_2_2221)">
<g id="fk2dw7.tif">
<g id="Group">
<path id="Vector" d="M4.43071 10.6742H3.40597C3.26389 10.6742 3.15194 10.5573 3.15194 10.409V6.24719C3.15194 6.09888 3.26389 5.98203 3.40597 5.98203H4.43071C4.57279 5.98203 4.68474 6.09888 4.68474 6.24719V10.409C4.68474 10.5573 4.57279 10.6742 4.43071 10.6742ZM6.16587 7.79326V8.86292C6.16587 9.01124 6.05392 9.12809 5.91184 9.12809H1.92054C1.77845 9.12809 1.6665 9.01124 1.6665 8.86292V7.79326C1.6665 7.64495 1.77845 7.52809 1.92054 7.52809H5.90753C6.04962 7.52809 6.16157 7.64495 6.16157 7.79326H6.16587Z" fill="#FEB540"/>
<path id="Vector_2" d="M10.5056 8.07191C10.2515 6.26517 11.1471 5.06966 12.456 4.09888C13.9759 2.96629 15.6895 2.26517 17.4677 1.72135C20.585 0.759552 23.7841 0.296631 27.0262 0.0988784C29.9583 -0.0808968 32.8861 -0.0179755 35.8053 0.341575C39.4178 0.791013 42.9742 1.47865 46.2551 3.24495C46.9483 3.61798 47.5941 4.06292 48.1797 4.59326C49.1915 5.50562 49.734 6.63371 49.5144 8.06742C49.213 8.63371 48.9202 9.20899 48.4768 9.67641C47.0817 11.1371 45.3164 11.9191 43.4995 12.5573C39.9473 13.8112 36.2574 14.3551 32.5288 14.5214C29.4072 14.6607 26.2813 14.5708 23.1727 14.1034C20.3267 13.6809 17.5323 13.0697 14.8801 11.8787C13.0674 11.0652 11.3839 10.0629 10.5056 8.06292V8.07191ZM29.6871 11.209C30.8668 11.182 31.7322 11.164 32.5934 11.1056C33.6913 11.0337 34.7892 10.9753 35.8871 10.8674C38.027 10.6562 40.1497 10.3461 42.2121 9.68989C43.2885 9.34832 44.3692 8.99775 45.1873 8.12584C45.6781 7.6045 45.6566 7.03371 45.1787 6.50337C44.6319 5.89663 43.9516 5.53259 43.2153 5.25393C39.8053 3.96405 36.2316 3.64944 32.6579 3.47865C30.053 3.35731 27.4352 3.38427 24.8217 3.65843C22.501 3.90113 20.1932 4.20225 17.9413 4.84944C17.0329 5.11011 16.1287 5.40225 15.3709 6.0045C14.9791 6.31461 14.5012 6.58877 14.4796 7.23596C14.4624 7.87416 14.8456 8.21573 15.2719 8.53034C16.1588 9.18202 17.1836 9.50562 18.2126 9.80674C19.8573 10.2876 21.5451 10.5258 23.2416 10.7551C25.4891 11.0607 27.7452 11.1146 29.6828 11.2045L29.6871 11.209Z" fill="#FED34D"/>
<path id="Vector_3" d="M44.3091 47.6719C42.8668 48.2517 41.3899 48.6831 39.8744 48.9888C39.8744 48.3371 39.8873 47.6854 39.8744 47.0382C39.8442 45.7169 40.1413 45.9236 38.7204 45.8921C38.3329 45.8831 38.2038 46.0449 38.2124 46.436C38.2339 47.3933 38.2253 48.3506 38.2296 49.3079C36.7915 49.5685 35.3492 49.7798 33.8895 49.8292C33.8895 49.1775 33.8895 48.5258 33.8895 47.8787C33.8895 46.6921 33.8895 46.7146 32.7615 46.6921C32.3008 46.6831 32.2104 46.8674 32.219 47.2944C32.2448 48.1753 32.2276 49.0562 32.2276 49.9371C30.7551 50.027 29.2782 50.0315 27.8057 49.9371C27.8057 49.2674 27.8057 48.5978 27.8057 47.9281C27.8057 46.6697 27.8057 46.6831 26.6131 46.6966C26.26 46.6966 26.1265 46.8045 26.1351 47.1865C26.1567 48.0674 26.1437 48.9483 26.1437 49.8292C24.6841 49.7843 23.2418 49.5685 21.8037 49.3124C21.8037 48.5843 21.8123 47.8517 21.8123 47.1236C21.8123 45.8292 21.8123 45.8382 20.5551 45.8966C20.2408 45.9101 20.1417 46.0225 20.146 46.3416C20.1589 47.227 20.1503 48.1079 20.1503 48.9933C18.6304 48.7011 17.1579 48.2427 15.7155 47.6809C15.7199 46.9169 15.7285 46.1483 15.7285 45.3843C15.7285 44.0944 15.7285 44.1034 14.4755 44.1573C14.1698 44.1708 14.0536 44.2697 14.0579 44.5933C14.0665 45.3573 14.0493 46.1258 14.0407 46.8899C13.27 46.5483 12.5854 46.0584 11.9481 45.5011C10.9449 44.6202 10.4153 43.5506 10.4713 42.1258C10.5445 40.3416 10.5014 38.5483 10.5058 36.7596C10.777 37.2989 11.044 37.8292 11.453 38.2921C12.9557 39.991 14.9405 40.791 16.9556 41.4652C20.9899 42.809 25.175 43.2405 29.3945 43.3438C30.3331 43.3663 31.2674 43.3079 32.2061 43.2674C33.6226 43.2045 35.0262 43.0652 36.4299 42.9034C39.0348 42.6112 41.5837 42.0719 44.0336 41.1056C46.2294 40.2382 48.3822 39.2539 49.5189 36.8674C49.5232 38.8629 49.5318 40.8539 49.5275 42.8494C49.5275 43.5955 49.2046 44.2202 48.7568 44.773C47.9947 45.7124 47.0475 46.3865 45.9797 46.8899C45.9711 46.391 45.9711 45.8921 45.9582 45.3933C45.9194 43.9371 46.2553 44.1933 44.7225 44.1528C44.3694 44.1438 44.2833 44.2966 44.2919 44.6292C44.3091 45.6449 44.3048 46.6607 44.3091 47.6764V47.6719Z" fill="#FEA82D"/>
<path id="Vector_4" d="M10.5058 8.0719C11.3842 10.0674 13.0677 11.0697 14.8803 11.8876C17.5326 13.0786 20.3269 13.6854 23.1729 14.1123C26.2816 14.5753 29.4075 14.6652 32.529 14.5303C36.2577 14.364 39.9476 13.8202 43.4997 12.5663C45.3167 11.9236 47.082 11.1461 48.477 9.68538C48.9248 9.21797 49.2133 8.64269 49.5147 8.07639C49.519 10.0899 49.5362 12.1034 49.5233 14.1168C49.519 15.0382 49.0454 15.7528 48.4512 16.382C47.7322 17.1371 46.8926 17.7168 45.9626 18.1528C45.9626 17.6315 45.9626 17.1146 45.9626 16.5932C45.9626 15.3303 45.9626 15.3438 44.7613 15.3618C44.391 15.3663 44.2877 15.5011 44.2963 15.8697C44.3178 16.8899 44.3092 17.9101 44.3092 18.9258C42.8711 19.5056 41.3986 19.9371 39.883 20.2292C39.883 19.6135 39.883 19.0022 39.883 18.3865C39.883 17.1775 39.883 17.191 38.699 17.2C38.3502 17.2 38.2038 17.2944 38.2124 17.6854C38.2383 18.6427 38.2297 19.6045 38.234 20.5618C36.7959 20.818 35.3535 21.0517 33.8896 21.0292C33.8896 20.4135 33.9025 19.8022 33.8896 19.1865C33.8638 17.8112 34.1479 18.0449 32.7013 18.009C32.3482 18 32.2104 18.1123 32.2233 18.4989C32.2449 19.3798 32.2276 20.2652 32.2276 21.1461C32.0296 21.2764 31.8057 21.2584 31.5861 21.2584C30.5398 21.2584 29.4936 21.2584 28.4473 21.2584C28.2277 21.2584 28.0038 21.2764 27.8058 21.1461C27.8058 20.4539 27.8144 19.7663 27.8058 19.0741C27.7799 17.7303 28.0641 17.9416 26.6605 17.9101C26.2859 17.9011 26.1309 18.0404 26.1395 18.4449C26.1567 19.3079 26.1481 20.1708 26.1481 21.0337C24.6885 21.0427 23.2504 20.818 21.8124 20.5663C21.8124 19.8562 21.8124 19.1461 21.8124 18.4404C21.8124 17.1775 21.8124 17.1955 20.624 17.2C20.215 17.2 20.1375 17.3708 20.1461 17.7483C20.1633 18.5708 20.1461 19.3977 20.1461 20.2202C19.7715 20.1438 19.3926 20.0854 19.0266 19.982C17.9072 19.6674 16.7447 19.4831 15.7242 18.8449C15.7242 18.0764 15.7371 17.3079 15.7242 16.5393C15.6984 15.182 15.9783 15.4022 14.5875 15.3663C14.1613 15.3528 14.0493 15.5461 14.0579 15.955C14.0795 16.6831 14.0623 17.4157 14.0579 18.1438C12.7103 17.4966 11.5392 16.6292 10.7598 15.2674C10.7426 15.2539 10.7254 15.2404 10.7039 15.2359C10.3336 13.9595 10.523 12.6472 10.4929 11.3528C10.4714 10.2607 10.4972 9.16853 10.5058 8.07639V8.0719Z" fill="#FEA82D"/>
<path id="Vector_5" d="M3.62095 32.5169C2.82011 32.1618 2.10538 31.6539 1.44662 31.0652C0.486466 30.2067 -0.0172909 29.164 0.0343764 27.7888C0.107572 26.009 0.0602101 24.2247 0.0602101 22.4404C0.378826 22.8539 0.5123 23.3708 0.869666 23.7798C2.0494 25.1326 3.54776 25.9326 5.13653 26.5753C8.31407 27.8652 11.6466 28.4449 15.0179 28.7551C16.822 28.9213 18.6389 28.9888 20.4602 28.9124C21.894 28.8539 23.3234 28.827 24.7529 28.6742C26.8368 28.4494 28.9035 28.1483 30.9315 27.5865C33.179 26.9618 35.3921 26.2292 37.2779 24.7371C37.9023 24.2427 38.5438 23.7258 38.772 22.8674C38.871 22.7146 38.97 22.5618 39.0734 22.4135C39.0777 24.4674 39.0949 26.5213 39.082 28.5753C39.082 28.9124 38.9485 29.2449 38.8796 29.582C38.6902 29.8607 38.5137 30.1528 38.307 30.4135C37.5621 31.3573 36.6278 32.0315 35.5385 32.4764C35.5385 31.9775 35.5385 31.4742 35.5428 30.9753C35.5643 29.5326 35.4481 29.8562 34.4448 29.7978C33.9153 29.7663 33.7646 30 33.7775 30.5034C33.799 31.4247 33.7861 32.3506 33.7861 33.2719C33.2952 33.5775 32.7398 33.6899 32.2059 33.8742C31.3104 34.1843 30.4062 34.4719 29.4589 34.5528C29.4589 33.9595 29.4589 33.3663 29.4589 32.773C29.4589 31.5146 29.4589 31.5281 28.2663 31.5416C27.9132 31.5416 27.7798 31.6449 27.7884 32.027C27.8099 32.9843 27.797 33.9416 27.797 34.8989C26.3718 35.2539 24.9122 35.3303 23.4655 35.4742C23.4655 34.8225 23.4612 34.1663 23.4655 33.5146C23.4828 32.0854 23.3751 32.4 22.3633 32.3461C21.8337 32.3146 21.6873 32.5528 21.7002 33.0562C21.7218 33.9011 21.7045 34.7506 21.7088 35.5955C20.2665 35.5955 18.8241 35.5955 17.3774 35.5955C17.3774 34.9258 17.3774 34.2562 17.3774 33.582C17.3774 32.3191 17.3774 32.3416 16.189 32.3461C15.78 32.3461 15.7025 32.5169 15.7111 32.8944C15.7326 33.7573 15.7197 34.6202 15.7197 35.4787C14.8242 35.3933 13.9243 35.3573 13.0416 35.2045C12.4905 35.1101 11.9093 35.1551 11.3883 34.8899C11.3883 33.9101 11.384 32.9303 11.4012 31.9506C11.4055 31.591 11.2247 31.4831 10.9577 31.5596C10.5229 31.6854 9.7909 31.1775 9.68326 31.8472C9.54117 32.7326 9.54548 33.6809 9.72201 34.5978C8.21074 34.3011 6.73391 33.8831 5.30875 33.2809C5.30875 32.5348 5.32598 31.7888 5.30875 31.0427C5.27861 29.591 5.60154 29.8427 4.07735 29.8022C3.7329 29.7933 3.63818 29.9371 3.64248 30.2742C3.6554 31.0202 3.63818 31.7663 3.62956 32.5124L3.62095 32.5169Z" fill="#FEA82D"/>
<path id="Vector_6" d="M49.519 36.8584C48.3823 39.2449 46.2338 40.2292 44.0337 41.0966C41.5838 42.0629 39.0306 42.6022 36.43 42.8944C35.0263 43.0517 33.6227 43.1955 32.2062 43.2584C31.2675 43.2989 30.3289 43.3618 29.3946 43.3348C25.1751 43.2315 20.9943 42.8 16.9557 41.4562C14.9449 40.7865 12.9558 39.982 11.4531 38.2831C11.0441 37.8202 10.7771 37.2899 10.5059 36.7506C10.5059 36.6697 10.5059 36.5933 10.5059 36.5168C12.1162 36.8629 13.7437 37.0607 15.3755 37.227C15.3884 37.4157 15.5391 37.4697 15.6683 37.5416C16.3357 37.9146 17.0289 38.2337 17.7565 38.4449C20.9384 39.3753 24.1934 39.7573 27.4829 39.8652C29.1965 39.9236 30.9145 39.9056 32.6281 39.8652C33.8552 39.8337 35.0866 39.7573 36.3094 39.6135C38.1479 39.4022 39.9778 39.1011 41.7646 38.5977C42.8884 38.2786 43.9777 37.8562 44.9379 37.155C45.7344 36.5708 45.7387 35.5775 44.9594 34.9843C44.6192 34.7281 44.2705 34.4899 43.8744 34.3056C41.9584 33.4067 39.9089 33.0652 37.8637 32.7101C38.6258 31.8337 39.2415 30.8944 39.0822 29.6225C41.8034 30.1483 44.4556 30.8944 46.8711 32.3685C47.3834 32.6831 47.8485 33.0562 48.2876 33.4652C49.265 34.373 49.7085 35.4966 49.5147 36.8674L49.519 36.8584Z" fill="#FED34D"/>
<path id="Vector_7" d="M38.7763 22.8674C38.5525 23.7258 37.9109 24.2427 37.2823 24.7371C35.3964 26.2292 33.1834 26.9618 30.9358 27.5865C28.9079 28.1483 26.8412 28.4494 24.7573 28.6741C23.3278 28.827 21.894 28.8539 20.4646 28.9123C18.6433 28.9888 16.8263 28.9258 15.0223 28.755C11.651 28.4449 8.31843 27.8652 5.14089 26.5753C3.55212 25.9326 2.05376 25.1326 0.874026 23.7798C0.516661 23.3708 0.387492 22.8494 0.064571 22.4404C-0.146404 21.3618 0.167906 20.427 0.83097 19.6135C1.65765 18.6022 2.71252 17.8966 3.85782 17.3438C6.04076 16.2876 8.32274 15.5955 10.7037 15.2314C10.7253 15.2359 10.7425 15.2494 10.7597 15.2629C10.764 15.3932 10.7511 15.5281 10.7769 15.6584C10.9793 16.7146 11.6122 17.5011 12.2925 18.2517C10.8415 18.4629 9.38623 18.6786 7.97398 19.0921C6.97078 19.3887 5.96326 19.7034 5.05047 20.2831C3.80184 21.0741 3.74587 22.1079 4.94283 22.9843C5.45951 23.3618 6.04076 23.6135 6.63494 23.8202C8.5251 24.4719 10.4626 24.8584 12.4389 25.0966C14.4496 25.3393 16.456 25.5101 18.4797 25.5371C20.908 25.5685 23.3321 25.4876 25.7519 25.209C27.2674 25.0382 28.7787 24.8674 30.2555 24.4809C31.4267 24.1753 32.6365 23.9685 33.6656 23.227L38.7763 22.8674Z" fill="#FED34D"/>
<path id="Vector_8" d="M39.0866 29.618C39.2459 30.8899 38.6302 31.8292 37.8681 32.7056C36.4688 33.9371 34.837 34.7371 33.1234 35.3348C31.1901 36.009 29.2096 36.4764 27.1859 36.7775C24.8953 37.1191 22.6004 37.3573 20.284 37.3348C18.6479 37.3169 17.0118 37.3663 15.3756 37.227C13.7438 37.0607 12.1163 36.8629 10.506 36.5169C10.394 35.9326 10.6222 35.3708 10.6265 34.791C10.8633 34.9303 11.1217 34.9079 11.38 34.8944C11.901 35.1595 12.4822 35.1146 13.0334 35.209C13.916 35.3573 14.8202 35.3978 15.7115 35.4831C16.2669 35.4652 16.8223 35.5011 17.3734 35.6C18.8158 35.6 20.2582 35.6 21.7049 35.6C22.2947 35.6045 22.8717 35.4202 23.4616 35.4831C24.9126 35.3393 26.3722 35.2629 27.793 34.9079C28.3657 34.9034 28.9082 34.7101 29.455 34.5618C30.4065 34.4854 31.3064 34.1933 32.202 33.8831C32.7359 33.6989 33.2913 33.5865 33.7821 33.2809C34.415 33.1326 34.9963 32.8584 35.5345 32.4809C36.6238 32.036 37.5581 31.3573 38.303 30.418C38.5097 30.1573 38.6862 29.8652 38.8757 29.5865C38.9446 29.6 39.0134 29.6135 39.0823 29.627L39.0866 29.618Z" fill="#D89835"/>
<path id="Vector_9" d="M38.7763 22.8674C37.0713 22.9888 35.3706 23.1101 33.6655 23.227C31.7194 23.227 29.7733 23.164 27.8271 23.0157C25.9757 22.8764 24.1458 22.6427 22.3246 22.2921C20.1373 21.8697 17.9931 21.2854 15.9264 20.3955C14.6261 19.8337 13.4249 19.1056 12.2882 18.2472C11.6036 17.4966 10.975 16.7101 10.7726 15.6539C10.7468 15.5281 10.7597 15.3888 10.7554 15.2584C11.5304 16.6202 12.7015 17.4876 14.0535 18.1348C14.596 18.3955 15.0954 18.773 15.7154 18.836C16.7316 19.4742 17.8941 19.6584 19.0178 19.973C19.3838 20.0764 19.7627 20.1348 20.1373 20.2112C20.6755 20.418 21.2482 20.4404 21.7993 20.5573C23.233 20.8045 24.6711 21.0337 26.135 21.0247C26.6775 21.2494 27.2416 21.0921 27.797 21.1371C27.9951 21.2674 28.2189 21.2494 28.4385 21.2494C29.4848 21.2494 30.5311 21.2494 31.5773 21.2494C31.7969 21.2494 32.0208 21.2674 32.2189 21.1371C32.77 21.0921 33.3383 21.2494 33.8808 21.0247C35.3447 21.0427 36.7871 20.8135 38.2252 20.5573C38.4448 20.5213 38.6687 20.4899 38.8883 20.4539C39.1078 21.0876 39.1466 21.7438 39.0734 22.409C38.9744 22.5618 38.8753 22.7146 38.772 22.8629L38.7763 22.8674Z" fill="#D89835"/>
<path id="Vector_10" d="M11.3842 34.8899C11.1259 34.9034 10.8675 34.9258 10.6307 34.7865C10.3121 34.8 10.015 34.7011 9.71362 34.5978C9.53709 33.6854 9.53279 32.7371 9.67487 31.8472C9.78251 31.1775 10.5145 31.6854 10.9493 31.5595C11.2163 31.4831 11.3971 31.591 11.3928 31.9506C11.3756 32.9303 11.3842 33.9101 11.3799 34.8899H11.3842Z" fill="#D46F35"/>
<path id="Vector_11" d="M20.1416 48.9843C20.1416 48.0989 20.1503 47.218 20.1373 46.3326C20.133 46.0135 20.2321 45.9011 20.5464 45.8876C21.8036 45.8292 21.8036 45.8202 21.8036 47.1146C21.8036 47.8427 21.7993 48.5753 21.795 49.3034C21.2353 49.2404 20.6842 49.1416 20.1416 48.9843Z" fill="#D46F35"/>
<path id="Vector_12" d="M38.2207 49.3034C38.2207 48.346 38.2207 47.3887 38.2035 46.4314C38.1949 46.0404 38.3284 45.8786 38.7116 45.8876C40.1324 45.9191 39.8396 45.7123 39.8655 47.0337C39.8784 47.6854 39.8655 48.3326 39.8655 48.9843C39.323 49.1371 38.7762 49.2494 38.2164 49.2989L38.2207 49.3034Z" fill="#D46F35"/>
<path id="Vector_13" d="M44.3049 18.9214C44.3049 17.9011 44.3135 16.8809 44.292 15.8652C44.2834 15.4966 44.391 15.3663 44.757 15.3573C45.9582 15.3393 45.9582 15.3214 45.9582 16.5888C45.9582 17.1101 45.9582 17.627 45.9582 18.1483C45.4502 18.5079 44.8732 18.7191 44.3006 18.9259L44.3049 18.9214Z" fill="#D46F35"/>
<path id="Vector_14" d="M26.135 49.8202C26.135 48.9393 26.1479 48.0584 26.1264 47.1775C26.1178 46.7955 26.2512 46.6921 26.6043 46.6877C27.7969 46.6742 27.7969 46.6607 27.7969 47.9191C27.7969 48.5888 27.7969 49.2584 27.7969 49.9281C27.2415 49.9281 26.6818 49.9641 26.135 49.8202Z" fill="#D46F35"/>
<path id="Vector_15" d="M32.2187 49.9281C32.2187 49.0472 32.236 48.1663 32.2101 47.2854C32.1972 46.8584 32.2876 46.6742 32.7526 46.6831C33.8807 46.7056 33.8807 46.6831 33.8807 47.8697C33.8807 48.5213 33.8807 49.173 33.8807 49.8202C33.3339 49.9595 32.7742 49.9326 32.2187 49.9281Z" fill="#D46F35"/>
<path id="Vector_16" d="M38.8886 20.4584C38.6647 20.4944 38.4451 20.5258 38.2255 20.5618C38.2255 19.6045 38.2298 18.6427 38.204 17.6854C38.1954 17.2944 38.3417 17.2045 38.6905 17.2C39.8745 17.1865 39.8745 17.173 39.8745 18.3865C39.8745 19.0022 39.8745 19.6135 39.8745 20.2292C39.5602 20.373 39.2244 20.418 38.8886 20.4629V20.4584Z" fill="#D46F35"/>
<path id="Vector_17" d="M44.3089 47.6719C44.3046 46.6562 44.3089 45.6405 44.2917 44.6247C44.2873 44.2921 44.3735 44.1393 44.7222 44.1483C46.255 44.1888 45.9192 43.9326 45.9579 45.3888C45.9708 45.8876 45.9708 46.3865 45.9795 46.8854C45.4585 47.2315 44.8944 47.4787 44.3089 47.6764V47.6719Z" fill="#D46F35"/>
<path id="Vector_18" d="M14.0361 46.8764C14.0447 46.1123 14.062 45.3438 14.0534 44.5798C14.0534 44.2562 14.161 44.1573 14.471 44.1438C15.7239 44.0899 15.7239 44.0809 15.7239 45.3708C15.7239 46.1348 15.7153 46.9034 15.711 47.6674C15.1298 47.4607 14.5614 47.227 14.0404 46.8764H14.0361Z" fill="#D46F35"/>
<path id="Vector_19" d="M3.62109 32.5168C3.6254 31.7708 3.64693 31.0247 3.63401 30.2786C3.6297 29.9416 3.72443 29.7977 4.06888 29.8067C5.59307 29.8472 5.27014 29.5955 5.30028 31.0472C5.31751 31.7932 5.30028 32.5393 5.30028 33.2854C4.7018 33.1191 4.14638 32.8584 3.6254 32.5168H3.62109Z" fill="#D46F35"/>
<path id="Vector_20" d="M29.6871 11.209C27.7496 11.1191 25.4934 11.0652 23.2459 10.7595C21.5495 10.5303 19.8617 10.2921 18.2169 9.81122C17.1922 9.51009 16.1631 9.19099 15.2762 8.53481C14.8499 8.22021 14.4667 7.87863 14.484 7.24043C14.5055 6.59324 14.9834 6.31908 15.3752 6.00897C16.133 5.40672 17.0372 5.11459 17.9457 4.85391C20.1975 4.20223 22.501 3.9056 24.826 3.6629C27.4396 3.38875 30.0574 3.36178 32.6623 3.48313C36.2359 3.64942 39.8096 3.96403 43.2196 5.25841C43.9559 5.53706 44.6362 5.89661 45.183 6.50785C45.6566 7.03818 45.6824 7.60897 45.1916 8.13032C44.3735 9.00223 43.2928 9.35279 42.2164 9.69436C40.154 10.3505 38.0357 10.6607 35.8915 10.8719C34.7935 10.9798 33.6956 11.0382 32.5977 11.1101C31.7322 11.164 30.8711 11.1865 29.6914 11.2135L29.6871 11.209Z" fill="#FEB540"/>
<path id="Vector_21" d="M27.7969 21.1416C27.2415 21.0966 26.6774 21.2539 26.1349 21.0292C26.1349 20.1663 26.1435 19.3034 26.1263 18.4404C26.1177 18.036 26.2727 17.8966 26.6473 17.9056C28.0466 17.9371 27.7625 17.7258 27.7926 19.0697C27.8055 19.7573 27.7926 20.4494 27.7926 21.1416H27.7969Z" fill="#D46F35"/>
<path id="Vector_22" d="M21.8037 20.5618C21.2483 20.4404 20.6756 20.418 20.1417 20.2157C20.1417 19.3932 20.159 18.5663 20.1417 17.7438C20.1331 17.3708 20.2106 17.2 20.6197 17.1955C21.808 17.191 21.808 17.173 21.808 18.4359C21.808 19.1461 21.808 19.8562 21.808 20.5618H21.8037Z" fill="#D46F35"/>
<path id="Vector_23" d="M15.72 18.8404C15.1 18.7775 14.6006 18.4 14.0581 18.1393C14.0581 17.4112 14.0753 16.6786 14.0581 15.9506C14.0452 15.5416 14.1614 15.3528 14.5877 15.3618C15.9784 15.4022 15.7028 15.1775 15.7243 16.5348C15.7373 17.3034 15.7243 18.0719 15.7243 18.8404H15.72Z" fill="#D46F35"/>
<path id="Vector_24" d="M33.881 21.0292C33.3385 21.2539 32.7745 21.0966 32.2191 21.1416C32.2191 20.2607 32.2363 19.3753 32.2147 18.4944C32.2061 18.1124 32.3396 17.9955 32.6927 18.0045C34.1394 18.045 33.8509 17.8068 33.881 19.182C33.8939 19.7978 33.881 20.409 33.881 21.0247V21.0292Z" fill="#D46F35"/>
<path id="Vector_25" d="M23.4614 35.4786C22.8715 35.4112 22.2946 35.6 21.7047 35.5955C21.7047 34.7505 21.7176 33.9011 21.6961 33.0562C21.6832 32.5528 21.8296 32.3191 22.3591 32.3461C23.371 32.4045 23.4786 32.0854 23.4614 33.5146C23.4528 34.1663 23.4614 34.8225 23.4614 35.4741V35.4786Z" fill="#D46F35"/>
<path id="Vector_26" d="M35.5342 32.4764C34.996 32.8539 34.4147 33.1281 33.7818 33.2764C33.7818 32.355 33.7947 31.4292 33.7732 30.5079C33.7603 30.0045 33.9153 29.7708 34.4406 29.8022C35.4395 29.8607 35.5557 29.5371 35.5385 30.9798C35.5299 31.4786 35.5385 31.982 35.5342 32.4809V32.4764Z" fill="#D46F35"/>
<path id="Vector_27" d="M29.4547 34.5573C28.9078 34.7056 28.3696 34.8989 27.7927 34.9034C27.7927 33.9461 27.8056 32.9887 27.7841 32.0314C27.7755 31.6494 27.9089 31.5461 28.262 31.5461C29.4547 31.5326 29.4547 31.5191 29.4547 32.7775C29.4547 33.3708 29.4547 33.964 29.4547 34.5573Z" fill="#D46F35"/>
<path id="Vector_28" d="M17.3777 35.5955C16.8266 35.4966 16.2755 35.4607 15.7158 35.4787C15.7158 34.6157 15.7287 33.7528 15.7072 32.8944C15.6985 32.5213 15.7761 32.3506 16.1851 32.3461C17.3734 32.3416 17.3734 32.3236 17.3734 33.582C17.3734 34.2517 17.3734 34.9213 17.3734 35.5955H17.3777Z" fill="#D46F35"/>
<path id="Vector_29" d="M15.3755 37.227C17.0073 37.3663 18.6478 37.3214 20.2839 37.3348C22.6003 37.3573 24.8952 37.1191 27.1858 36.7775C29.2094 36.4764 31.19 36.009 33.1232 35.3348C34.8369 34.7371 36.4687 33.9371 37.868 32.7056C39.9132 33.0652 41.9627 33.4023 43.8787 34.3011C44.2705 34.4854 44.6235 34.7236 44.9637 34.9798C45.7473 35.573 45.743 36.5663 44.9421 37.1506C43.982 37.8517 42.8927 38.2742 41.7689 38.5933C39.9778 39.1011 38.1522 39.3978 36.3137 39.609C35.0909 39.7483 33.8638 39.8292 32.6324 39.8607C30.9188 39.9011 29.2008 39.9191 27.4872 39.8607C24.1977 39.7528 20.9426 39.3708 17.7608 38.4405C17.0332 38.2292 16.3399 37.9101 15.6726 37.5371C15.5434 37.4652 15.397 37.4112 15.3798 37.2225L15.3755 37.227Z" fill="#FEB540"/>
<path id="Vector_30" d="M12.2928 18.2517C13.4295 19.1101 14.6264 19.8382 15.931 20.4C17.9977 21.2899 20.1419 21.8742 22.3292 22.2966C24.1504 22.6472 25.9803 22.8809 27.8317 23.0202C29.7779 23.1685 31.7197 23.2315 33.6702 23.2315C32.6411 23.9685 31.4312 24.1798 30.2601 24.4854C28.7833 24.8719 27.272 25.0382 25.7564 25.2135C23.3367 25.4876 20.9169 25.573 18.4843 25.5416C16.4649 25.5146 14.4542 25.3438 12.4435 25.1011C10.4672 24.8629 8.52968 24.4719 6.63951 23.8247C6.04534 23.618 5.46408 23.3708 4.9474 22.9888C3.75044 22.1124 3.80211 21.0786 5.05504 20.2876C5.96783 19.7124 6.97104 19.3933 7.97856 19.0966C9.3908 18.6786 10.8461 18.4674 12.2971 18.2562L12.2928 18.2517Z" fill="#FEB540"/>
<path id="Vector_31" d="M4.37447 38.6966H3.34973C3.20944 38.6966 3.0957 38.8153 3.0957 38.9618V43.1236C3.0957 43.27 3.20944 43.3888 3.34973 43.3888H4.37447C4.51477 43.3888 4.6285 43.27 4.6285 43.1236V38.9618C4.6285 38.8153 4.51477 38.6966 4.37447 38.6966Z" fill="#FEB540"/>
<path id="Vector_32" d="M1.61475 40.5034V41.573C1.61475 41.7195 1.72848 41.8382 1.86878 41.8382H5.85578C5.99607 41.8382 6.10981 41.7195 6.10981 41.573V40.5034C6.10981 40.3569 5.99607 40.2382 5.85578 40.2382H1.86878C1.72848 40.2382 1.61475 40.3569 1.61475 40.5034Z" fill="#FEB540"/>
<path id="Vector_33" d="M49.2651 22.764H48.2404C48.1001 22.764 47.9863 22.8828 47.9863 23.0292V27.191C47.9863 27.3375 48.1001 27.4562 48.2404 27.4562H49.2651C49.4054 27.4562 49.5191 27.3375 49.5191 27.191V23.0292C49.5191 22.8828 49.4054 22.764 49.2651 22.764Z" fill="#FEB540"/>
<path id="Vector_34" d="M46.5049 24.5753V25.6449C46.5049 25.7914 46.6186 25.9101 46.7589 25.9101H50.7459C50.8862 25.9101 50.9999 25.7914 50.9999 25.6449V24.5753C50.9999 24.4288 50.8862 24.3101 50.7459 24.3101H46.7589C46.6186 24.3101 46.5049 24.4288 46.5049 24.5753Z" fill="#FEB540"/>
</g>
</g>
</g>
<defs>
<clipPath id="clip0_2_2221">
<rect width="51" height="50" fill="white"/>
</clipPath>
</defs>
</svg>
