<svg xmlns="http://www.w3.org/2000/svg" width="30" height="30" fill="none"><g clip-path="url(#a)"><path fill="url(#b)" d="M13.338 25.566c-4.3-4.363-8.6-8.738-12.938-13.15.125 0 .2-.025.275-.025H8.5c.188 0 .263.05.325.225 1.5 4.25 3 8.5 4.513 12.737.025.063.037.138.062.213h-.062Z"/><path fill="url(#c)" d="M29.6 12.4c-4.35 4.425-8.663 8.8-12.963 13.175l-.037-.025c.025-.088.05-.175.075-.25 1.5-4.225 2.987-8.438 4.487-12.663.063-.162.113-.262.325-.262h7.85c.063 0 .125 0 .263.012v.013Z"/><path fill="url(#d)" d="M10.576 12.403h8.863c-1.475 4.6-2.938 9.163-4.388 13.738h-.062c-1.463-4.563-2.925-9.138-4.4-13.75l-.013.012Z"/><path fill="url(#e)" d="M1.225 10.642 2.35 9.205c1.2-1.513 2.4-3.038 3.588-4.55a.505.505 0 0 1 .45-.225H11.213c-.025.1-.05.175-.075.237-.763 1.913-1.525 3.838-2.288 5.75-.062.15-.125.25-.325.25H1.463c-.063 0-.125 0-.25-.025h.012Z"/><path fill="url(#f)" d="M18.764 4.442c.125 0 .2-.012.287-.012h4.575c.125 0 .3.075.375.175 1.55 1.95 3.1 3.912 4.638 5.875.025.037.05.075.112.162-.125 0-.2.025-.287.025h-6.975c-.113 0-.275-.075-.313-.15-.812-2-1.6-4-2.412-6.05v-.025Z"/><path fill="url(#g)" d="M19.351 10.64H10.64c.037-.1.062-.188.087-.276.75-1.9 1.513-3.8 2.263-5.7.075-.2.175-.25.375-.25h3.287c.15 0 .263 0 .338.188.775 1.962 1.55 3.925 2.337 5.887a.85.85 0 0 1 .038.15h-.013Z"/></g><defs><linearGradient id="b" x1="6.9" x2="6.9" y1="12.391" y2="25.566" gradientUnits="userSpaceOnUse"><stop stop-color="#C6E2F2"/><stop offset=".3" stop-color="#AAC3CC"/><stop offset=".595" stop-color="#8DB5BF"/><stop offset="1" stop-color="#4E9ED0"/></linearGradient><linearGradient id="c" x1="23.1" x2="23.1" y1="12.375" y2="25.575" gradientUnits="userSpaceOnUse"><stop stop-color="#C6E2F2"/><stop offset=".3" stop-color="#AAC3CC"/><stop offset=".595" stop-color="#8DB5BF"/><stop offset="1" stop-color="#4E9ED0"/></linearGradient><linearGradient id="d" x1="15.007" x2="15.007" y1="12.391" y2="26.141" gradientUnits="userSpaceOnUse"><stop stop-color="#C6E2F2"/><stop offset=".3" stop-color="#AAC3CC"/><stop offset=".595" stop-color="#8DB5BF"/><stop offset="1" stop-color="#4E9ED0"/></linearGradient><linearGradient id="e" x1="6.213" x2="6.213" y1="4.43" y2="10.667" gradientUnits="userSpaceOnUse"><stop stop-color="#C6E2F2"/><stop offset=".3" stop-color="#AAC3CC"/><stop offset=".595" stop-color="#8DB5BF"/><stop offset="1" stop-color="#4E9ED0"/></linearGradient><linearGradient id="f" x1="23.757" x2="23.757" y1="4.43" y2="10.667" gradientUnits="userSpaceOnUse"><stop stop-color="#C6E2F2"/><stop offset=".3" stop-color="#AAC3CC"/><stop offset=".595" stop-color="#8DB5BF"/><stop offset="1" stop-color="#4E9ED0"/></linearGradient><linearGradient id="g" x1="15.001" x2="15.001" y1="4.414" y2="10.639" gradientUnits="userSpaceOnUse"><stop stop-color="#C6E2F2"/><stop offset=".3" stop-color="#AAC3CC"/><stop offset=".595" stop-color="#8DB5BF"/><stop offset="1" stop-color="#4E9ED0"/></linearGradient><clipPath id="a"><path fill="#fff" d="M0 0h30v30H0z"/></clipPath></defs></svg>