<?xml version="1.0" encoding="UTF-8"?>
<!-- Generator: Adobe Illustrator 16.0.4, SVG Export Plug-In . SVG Version: 6.00 Build 0)  -->
<!DOCTYPE svg PUBLIC "-//W3C//DTD SVG 1.1//EN" "http://www.w3.org/Graphics/SVG/1.1/DTD/svg11.dtd">
<svg fill="#82C050" version="1.1" id="Ebene_1" xmlns="http://www.w3.org/2000/svg" xmlns:xlink="http://www.w3.org/1999/xlink" x="0px" y="0px" width="113.39px" height="113.39px" viewBox="0 0 113.39 113.39" enable-background="new 0 0 113.39 113.39" xml:space="preserve">
<g>
	<defs>
		<rect id="SVGID_1_" y="0.004" width="113.386" height="113.387"/>
	</defs>
	<clipPath id="SVGID_2_">
		<use xlink:href="#SVGID_1_" overflow="visible"/>
	</clipPath>
	<path clip-path="url(#SVGID_2_)" d="M94.171,53.415l-0.384,0.066c0.09,1.061,0.146,2.131,0.146,3.216   c0,1.083-0.056,2.156-0.146,3.217l0.384,0.066c1.183,0.211,1.973,1.336,1.762,2.521l-0.381,2.166   c-0.21,1.182-1.337,1.973-2.519,1.764l-0.375-0.068c-0.562,2.098-1.301,4.117-2.202,6.049l0.332,0.191   c1.037,0.598,1.395,1.93,0.794,2.969l-1.1,1.906c-0.604,1.039-1.933,1.396-2.971,0.795l-0.338-0.193   c-1.235,1.76-2.613,3.414-4.131,4.932l0.246,0.293c0.775,0.92,0.652,2.291-0.266,3.064l-1.688,1.41   c-0.92,0.773-2.291,0.654-3.062-0.266l-0.248-0.297c-1.751,1.227-3.615,2.309-5.57,3.223l0.131,0.357   c0.41,1.131-0.173,2.377-1.301,2.787l-2.067,0.752c-1.127,0.41-2.376-0.17-2.786-1.299l-0.13-0.355   c-2.049,0.543-4.166,0.916-6.337,1.107v0.387c0,1.203-0.974,2.176-2.174,2.176H55.59c-1.201,0-2.174-0.975-2.174-2.176v-0.389   c-2.172-0.189-4.291-0.562-6.339-1.107l-0.13,0.357c-0.411,1.129-1.657,1.709-2.785,1.299l-2.068-0.752   c-1.129-0.41-1.709-1.66-1.3-2.789l0.129-0.357c-1.952-0.916-3.814-1.996-5.565-3.223l-0.251,0.299   c-0.771,0.918-2.143,1.039-3.063,0.266l-1.686-1.414c-0.92-0.771-1.041-2.143-0.269-3.064l0.248-0.293   c-1.514-1.52-2.893-3.172-4.129-4.932l-0.34,0.195c-1.038,0.602-2.368,0.244-2.969-0.795l-1.101-1.906   c-0.599-1.039-0.243-2.371,0.798-2.971l0.333-0.191c-0.903-1.932-1.641-3.953-2.204-6.047l-0.377,0.068   c-1.182,0.209-2.309-0.582-2.518-1.764L17.448,62.5c-0.207-1.186,0.581-2.312,1.763-2.52l0.387-0.07   c-0.09-1.059-0.146-2.129-0.146-3.213c0-1.085,0.056-2.157,0.147-3.219l-0.387-0.066c-1.183-0.21-1.971-1.336-1.764-2.518   l0.383-2.167c0.208-1.183,1.336-1.973,2.519-1.765l0.376,0.066c0.563-2.093,1.301-4.114,2.204-6.045l-0.333-0.193   c-1.041-0.599-1.397-1.928-0.798-2.968l1.101-1.906c0.601-1.039,1.932-1.397,2.97-0.796l0.34,0.197   c1.236-1.761,2.614-3.413,4.13-4.934l-0.248-0.294c-0.772-0.919-0.653-2.291,0.267-3.063l1.686-1.412   c0.921-0.773,2.292-0.654,3.063,0.268l0.252,0.296c1.751-1.227,3.613-2.306,5.567-3.22l-0.13-0.362   c-0.412-1.128,0.171-2.375,1.3-2.786l2.067-0.752c1.127-0.412,2.374,0.17,2.785,1.298l0.131,0.359   c2.048-0.547,4.166-0.919,6.338-1.106v-0.392c0-1.201,0.972-2.175,2.173-2.175h2.201c1.202,0,2.174,0.974,2.174,2.175v0.392   c2.173,0.187,4.29,0.559,6.338,1.106l0.129-0.357c0.413-1.13,1.658-1.711,2.788-1.3l2.066,0.752c1.129,0.413,1.711,1.658,1.3,2.789   l-0.13,0.359c1.955,0.914,3.817,1.995,5.569,3.22l0.249-0.296c0.773-0.92,2.142-1.039,3.062-0.268l1.686,1.414   c0.92,0.771,1.041,2.143,0.268,3.062l-0.247,0.293c1.519,1.521,2.896,3.173,4.132,4.934l0.336-0.195   c1.043-0.601,2.371-0.245,2.972,0.796l1.099,1.906c0.601,1.039,0.243,2.37-0.794,2.968l-0.332,0.192   c0.901,1.933,1.641,3.951,2.203,6.047l0.375-0.065c1.183-0.209,2.308,0.581,2.518,1.764l0.381,2.166   C96.144,52.078,95.354,53.205,94.171,53.415 M103.961,56.697c0-26.106-21.163-47.268-47.268-47.268   c-26.107,0-47.268,21.162-47.268,47.268c0,26.105,21.161,47.268,47.268,47.268C82.798,103.965,103.961,82.803,103.961,56.697"/>
	<path clip-path="url(#SVGID_2_)" d="M49.621,56.659c0,4.218,0.69,6.979,2.225,8.897c1.457,1.764,3.298,2.607,5.675,2.607   c2.608,0,4.372-0.922,6.443-3.145l6.75,6.672c-3.529,3.684-7.67,5.447-13.193,5.447c-7.977,0-17.871-4.295-17.871-20.479   c0-16.184,9.894-20.403,17.871-20.403c5.523,0,9.664,1.688,13.193,5.37l-6.75,6.749c-2.071-2.224-3.835-3.145-6.443-3.145   c-2.376,0-4.218,0.844-5.675,2.608C50.311,49.756,49.621,52.44,49.621,56.659 M89.205,56.697c0-17.957-14.557-32.513-32.512-32.513   c-17.956,0-32.515,14.556-32.515,32.513c0,17.955,14.559,32.514,32.515,32.514C74.648,89.211,89.205,74.652,89.205,56.697"/>
</g>
</svg>
