<svg xmlns="http://www.w3.org/2000/svg" width="30" height="30" fill="none"><path fill="#fff" d="M21.25 4.063h-7.812v3.062a.944.944 0 0 1-.938.938.944.944 0 0 1-.937-.938V4.062H8.75c-5.312 0-7.05 1.588-7.175 6.538-.012.25.088.5.263.675a.927.927 0 0 0 .675.287c1.9 0 3.437 1.538 3.437 3.438 0 1.9-1.537 3.438-3.437 3.438h-.025c-.513 0-.925.45-.913.962.125 4.95 1.863 6.538 7.175 6.538h2.813v-3.063c0-.512.425-.938.937-.938.513 0 .938.425.938.938v3.063h7.812c5.513 0 7.188-1.675 7.188-7.188v-7.5c0-5.513-1.675-7.188-7.188-7.188Zm-7.825 13.225a.936.936 0 0 1-.937.937.936.936 0 0 1-.938-.938V12.7c0-.512.425-.938.938-.938.512 0 .937.425.937.938v4.588Z"/></svg>