<?xml version="1.0" encoding="utf-8"?>
<!-- Generator: Adobe Illustrator 16.0.4, SVG Export Plug-In . SVG Version: 6.00 Build 0)  -->
<!DOCTYPE svg PUBLIC "-//W3C//DTD SVG 1.1//EN" "http://www.w3.org/Graphics/SVG/1.1/DTD/svg11.dtd">
<svg version="1.1" id="Ebene_1" xmlns="http://www.w3.org/2000/svg" xmlns:xlink="http://www.w3.org/1999/xlink" x="0px" y="0px"
	 width="113.391px" height="113.391px" viewBox="0 0 113.391 113.391" enable-background="new 0 0 113.391 113.391"
	 xml:space="preserve">
<g>
	<g>
		<defs>
			<rect id="SVGID_1_" x="0" y="0" width="113.387" height="113.388"/>
		</defs>
		<clipPath id="SVGID_2_">
			<use xlink:href="#SVGID_1_"  overflow="visible"/>
		</clipPath>
	</g>
</g>
<g>
	<defs>
		<rect id="SVGID_3_" x="0.004" y="0" width="113.387" height="113.387"/>
	</defs>
	<clipPath id="SVGID_4_">
		<use xlink:href="#SVGID_3_"  overflow="visible"/>
	</clipPath>
</g>
<rect x="25.611" y="86.261" fill="#2B9EEF" width="62.165" height="10.971"/>
<g>
	<defs>
		<rect id="SVGID_5_" x="0" y="0.004" width="113.387" height="113.386"/>
	</defs>
	<clipPath id="SVGID_6_">
		<use xlink:href="#SVGID_5_"  overflow="visible"/>
	</clipPath>
	<path clip-path="url(#SVGID_6_)" fill="#2B9EEF" d="M104.23,38.724c-4.039,0-7.313,3.273-7.313,7.314
		c0,0.998,0.2,1.949,0.563,2.816L73.57,58.863L60.519,37.636c2.088-1.289,3.486-3.59,3.486-6.225c0-4.039-3.273-7.314-7.313-7.314
		c-4.039,0-7.313,3.275-7.313,7.314c0,2.631,1.395,4.932,3.481,6.219l-13.075,21.23l-23.883-9.998
		c0.364-0.869,0.566-1.824,0.566-2.824c0-4.041-3.274-7.314-7.313-7.314s-7.313,3.273-7.313,7.314c0,4.037,3.274,7.314,7.313,7.314
		c1.176,0,2.283-0.285,3.267-0.779l13.184,26.367l-0.021,0.008h0.025H87.75h0.025l-0.021-0.008l13.188-26.377
		c0.989,0.5,2.104,0.789,3.289,0.789c4.039,0,7.312-3.277,7.312-7.314C111.543,41.998,108.269,38.724,104.23,38.724"/>
</g>
</svg>
