<?xml version="1.0" encoding="utf-8"?>
<!-- Generator: Adobe Illustrator 16.0.4, SVG Export Plug-In . SVG Version: 6.00 Build 0)  -->
<!DOCTYPE svg PUBLIC "-//W3C//DTD SVG 1.1//EN" "http://www.w3.org/Graphics/SVG/1.1/DTD/svg11.dtd">
<svg fill="white" version="1.1" id="Ebene_1" xmlns="http://www.w3.org/2000/svg" xmlns:xlink="http://www.w3.org/1999/xlink" x="0px" y="0px"
	 width="113.39px" height="113.39px" viewBox="0 0 113.39 113.39" enable-background="new 0 0 113.39 113.39" xml:space="preserve">
<g>
	<defs>
		<rect id="SVGID_1_" y="0.004" width="113.386" height="113.387"/>
	</defs>
	<clipPath id="SVGID_2_">
		<use xlink:href="#SVGID_1_"  overflow="visible"/>
	</clipPath>
	<path clip-path="url(#SVGID_2_)" d="M56.693,73.604c-9.336,0-16.906-7.564-16.906-16.907c0-9.341,7.57-16.906,16.906-16.906
		c9.336,0,16.907,7.565,16.907,16.906C73.6,66.039,66.029,73.604,56.693,73.604 M92.261,66.357h10.706
		c0.646-3.117,0.994-6.344,0.994-9.661c0-3.314-0.349-6.542-0.994-9.659H92.261c-0.797-3.102-1.929-6.069-3.428-8.812l7.395-7.395
		c-3.566-5.447-8.223-10.1-13.664-13.668l-6.954,6.95c-2.855-1.817-5.955-3.306-9.254-4.334v-9.355
		c-3.12-0.65-6.351-0.994-9.663-0.994c-3.314,0-6.542,0.344-9.663,0.994v8.427c-3.772,0.775-7.339,2.102-10.626,3.894l-5.582-5.582
		c-5.44,3.568-10.099,8.221-13.663,13.668l5.136,5.136c-2.148,3.37-3.767,7.096-4.795,11.071h-7.081
		c-0.646,3.117-0.993,6.345-0.993,9.659c0,3.317,0.347,6.543,0.993,9.661H17.5c1.028,3.975,2.647,7.695,4.795,11.07l-5.136,5.141
		c3.566,5.443,8.223,10.092,13.663,13.664l5.582-5.584c3.287,1.793,6.854,3.119,10.626,3.895v8.428
		c3.121,0.646,6.349,0.994,9.663,0.994c3.312,0,6.542-0.348,9.663-0.994v-9.354c3.299-1.029,6.398-2.518,9.254-4.336l6.954,6.951
		c5.438-3.572,10.098-8.221,13.664-13.664l-7.395-7.398C90.332,72.426,91.464,69.459,92.261,66.357"/>
</g>
</svg>
