<svg xmlns="http://www.w3.org/2000/svg" width="27.742" height="19.188" viewBox="0 0 27.742 19.188">
  <defs>
    <style>
      .cls-1 {
        fill: #fff;
        stroke: #fff;
        stroke-linecap: round;
      }
    </style>
  </defs>
  <path id="Differenzmenge_15" data-name="Differenzmenge 15" class="cls-1" d="M13.37,18.187c-3.878,0-6.416-.949-8.231-3.078A14.038,14.038,0,0,1,3.7,12.933,7.277,7.277,0,0,0,.857,9.683C.264,9.38,0,9.05,0,8.613c0-.5.229-.885,1.367-1.227C2.883,6.934,3.71,5.614,4.559,4.064l.059-.107A12.684,12.684,0,0,1,6.4,1.249,3.824,3.824,0,0,1,9.176,0l.168,0A4.714,4.714,0,0,1,13.37,2.234,4.715,4.715,0,0,1,17.4,0c.057,0,.113,0,.17,0a3.824,3.824,0,0,1,2.775,1.246,12.684,12.684,0,0,1,1.783,2.708l.059.107c.849,1.549,1.674,2.869,3.191,3.322,1.139.341,1.368.722,1.368,1.227,0,.437-.264.767-.857,1.07a7.274,7.274,0,0,0-2.845,3.249A14.022,14.022,0,0,1,21.6,15.109C19.787,17.238,17.248,18.187,13.37,18.187ZM13.37,7a2,2,0,1,0,2,2A2,2,0,0,0,13.37,7Z" transform="translate(0.5 0.5)"/>
</svg>
