<svg xmlns="http://www.w3.org/2000/svg" width="23.085" height="22.934" viewBox="0 0 23.085 22.934">
  <defs>
    <style>
      .cls-1 {
        fill: none;
      }

      .cls-1, .cls-2 {
        stroke: #fff;
      }

      .cls-2 {
        fill: #fff;
      }
    </style>
  </defs>
  <g id="Gruppe_779" data-name="Gruppe 779" transform="translate(1879.586 95.818)">
    <path id="Pfad_7" data-name="Pfad 7" class="cls-1" d="M56.832,67.483a4.956,4.956,0,0,0,1.876-3.747A4.727,4.727,0,0,0,57.455,60.6a10.038,10.038,0,0,1-2.479,2.648,14.171,14.171,0,0,1-8.506,2.673,15.719,15.719,0,0,1-2.357-.176c1.078,2.145,3.829,3.67,7.053,3.67a9.671,9.671,0,0,0,2.939-.448l4.209,2.1c.227.113.32.02.207-.207Z" transform="translate(-1915.708 -144.51)"/>
    <path id="Pfad_8" data-name="Pfad 8" class="cls-2" d="M16.687,17.595m8.046-1.52M30.8,17.6c0-4.513-4.857-8.172-10.849-8.172S9.1,13.089,9.1,17.6a7.13,7.13,0,0,0,2.7,5.391L9.275,28.039c-.114.227-.021.32.207.207l6.237-3.115a13.936,13.936,0,0,0,4.229.644c5.992,0,10.849-3.659,10.849-8.173" transform="translate(-1888.185 -104.748)"/>
  </g>
</svg>
