<svg xmlns="http://www.w3.org/2000/svg" width="24" height="24" fill="none"><g fill="#fff" clip-path="url(#a)"><path d="M9 2C6.38 2 4.26 4.14 4.27 6.76c0 2.56 2.05 4.65 4.61 4.73a.81.81 0 0 1 .22 0h.07c2.62-.07 4.68-2.26 4.61-4.88A4.745 4.745 0 0 0 9 2ZM14.08 14.15a9.929 9.929 0 0 0-10.15 0 3.946 3.946 0 0 0-1.97 3.23c.06 1.33.8 2.54 1.96 3.21C5.44 21.54 7.21 22.03 9 22c1.79.03 3.56-.46 5.08-1.41 1.16-.67 1.9-1.89 1.96-3.23a3.94 3.94 0 0 0-1.96-3.21ZM19.99 7.34a3.576 3.576 0 0 1-3.13 3.87h-.05c-.06 0-.12 0-.17.02-.92.06-1.82-.24-2.53-.83a4.588 4.588 0 0 0 .73-5.98 3.59 3.59 0 0 1 4.8 1.65c.19.4.31.83.35 1.27Z"/><path d="M21.99 16.59a3.042 3.042 0 0 1-1.74 2.38c-1.08.56-2.29.83-3.51.78.69-.59 1.12-1.42 1.22-2.32.05-1.34-.58-2.61-1.67-3.38-.69-.54-1.47-.97-2.3-1.26 2.29-.65 4.76-.22 6.7 1.17.86.6 1.35 1.59 1.3 2.63Z"/></g><defs><clipPath id="a"><path fill="#fff" d="M0 0h24v24H0z"/></clipPath></defs></svg>