<svg xmlns="http://www.w3.org/2000/svg" width="188.358" height="28.817" viewBox="0 0 188.358 28.817">
  <g id="mailonline-vector-logo" transform="translate(0 0)">
    <path id="Pfad_2185" data-name="Pfad 2185" d="M44.6,288.947v-.5l-.063-6.721s-.157-.628.848-.314l.031,7.538Zm.471,10.553a.352.352,0,0,1-.44-.283v-4.9h.817v5.465Zm-8.7-10.553-2.952,4.4-.031-11.558,3.172,1.665s.283-.22.44.5v4.963h-.628Zm-4.177,11.4s-.22.22-.283-.157l.063-17.84s.063-.6.942-.628l.063,19.128Zm26.7.848a3.859,3.859,0,0,1-2.042-2.984V280.937s.22-.094-.283-.44l-6.376-3.738s-.157-.346-.785.188L44,280.341l-5.4-2.984a.428.428,0,0,0-.5-.063c-.44.251-6.816,3.675-6.816,3.675L26.536,278.2s-.22-.346-.5-.126l-5.182,3.329s-.722.283.283.848l.188.063,3.612,2.607v15.3l-1.853,1.068s-.628.283-.063.691l6.6,3.455,5.025-2.827a.427.427,0,0,0,.063-.691l-1.194-.754-.031-6.816h3.581v5.308l-1.633,1.005s-.5.283.157.722l7.569,4.02,5.088-3.172s.5-.063.157-.44l-2.418-1.665v-6.062l3.486-5.057H45.947l-.031-7.318,3.267,1.7s.408-.126.5.66V300.6a6.386,6.386,0,0,0,4.617,4.868l4.9-3.486c-.031-.126.188-.408-.314-.785" transform="translate(-20.6 -276.65)" fill="#d6d6d6"/>
    <path id="Pfad_2186" data-name="Pfad 2186" d="M155.916,316.994a11.907,11.907,0,0,1-4.366-4.02,7.324,7.324,0,0,1-.6-4.963,4.612,4.612,0,0,1,2.921-3.675l3.832,2.576-.063,9.768c0,.031-.5.879-1.727.314m13.035.283-3.109-2.1V306.66s-.063-.408.22-.44l1.194-.942s.22-.346-.188-.785-7.664-4.052-7.664-4.052-.283-.408-.942.063c0,0-7.946,3.235-11.119,7.35,0,0-2.45,1.57-2.042,7.821h0v.126c.126.754,1.1,5.025,7.036,5.811l4.366-3.486a.329.329,0,0,1,.565-.063l7.35,3.549,4.46-3.486a1,1,0,0,0-.126-.848" transform="translate(-106.102 -292.856)" fill="#d6d6d6"/>
    <path id="Pfad_2187" data-name="Pfad 2187" d="M222.8,302.96a42.734,42.734,0,0,0-4.68,3.172c-.346.5-.063.722-.063.722a21.2,21.2,0,0,0,2.356,1.351c.5.157.346.44.346.44l.126,8.7a3.408,3.408,0,0,1,0,.817s-.754.565-1.131.911a.511.511,0,0,0-.094.785l6.721,3.392s4.554-3.267,4.931-3.455c.408-.157,0-.5,0-.5s-1.947-1.131-2.293-1.288a.4.4,0,0,1-.22-.5s-.251-8.575-.063-9.328c.157-.691.408-.471.408-.471a4,4,0,0,0,1.131-.5c.5-.346.063-.628.063-.628s-6.25-3.267-6.721-3.675a.586.586,0,0,0-.817.063" transform="translate(-155.967 -294.558)" fill="#d6d6d6"/>
    <path id="Pfad_2188" data-name="Pfad 2188" d="M235.3,285.091a.757.757,0,0,0,.848.44,7.491,7.491,0,0,0,3.738-3.612c.691-2.481-.911-3.141-.911-3.141a2.284,2.284,0,0,0-2.418-.157,4.486,4.486,0,0,0-2.042,2.544,5.73,5.73,0,0,0,.785,3.926" transform="translate(-167.268 -277.82)" fill="#d6d6d6"/>
    <path id="Pfad_2189" data-name="Pfad 2189" d="M263.1,282.672s7.318-2.356,8.292-2.607c.974-.22.911.22.911.22s-.22,20.887-.063,21.609c.189.722.5.565.5.565s1.7,1.194,2.073,1.351a.385.385,0,0,1,.189.565l-4.115,3.2s-6.753-2.984-7.287-3.329c-.691-.44-.22-.722-.22-.722l1.193-1.194s.22-17.086-.094-18a2.334,2.334,0,0,0-1.413-1.225c-.251-.377.031-.44.031-.44" transform="translate(-186.844 -278.951)" fill="#d6d6d6"/>
    <path id="Pfad_2190" data-name="Pfad 2190" d="M337.714,297.746c0-7.538-2.45-11.182-7.789-11.182-5.025,0-7.789,3.361-7.789,11.182v.628c0,7.664,2.8,11.024,7.789,11.024,5.025,0,7.789-2.89,7.789-10.962Zm-7.789,13.349c-5.9,0-9.925-3.863-9.925-12.249V297.4c0-8.1,3.675-12.5,9.925-12.5,6.6,0,9.925,4.429,9.925,12.5v1.382c.031,8.26-3.581,12.312-9.925,12.312" transform="translate(-225.963 -282.309)" fill="#d6d6d6"/>
    <path id="Pfad_2191" data-name="Pfad 2191" d="M409.44,323.756V309.245c0-2.1-1.665-3.581-4.429-3.581a7.008,7.008,0,0,0-6.47,4.146v13.977H396.5V304.628h1.885l.063,3.518c.817-2.01,3.455-4.146,7.13-4.146,3.549,0,5.873,1.979,5.873,5.622v14.134Z" transform="translate(-278.435 -295.41)" fill="#d6d6d6"/>
    <rect id="Rechteck_553" data-name="Rechteck 553" width="2.01" height="25.41" transform="translate(138.041 2.937)" fill="#d6d6d6"/>
    <path id="Pfad_2192" data-name="Pfad 2192" d="M482.714,313.536h2.042V294.188h-2.042Zm-.314-21.515h2.576V289.1H482.4Z" transform="translate(-337.355 -285.19)" fill="#d6d6d6"/>
    <path id="Pfad_2193" data-name="Pfad 2193" d="M519.34,323.756V309.245c0-2.1-1.665-3.581-4.429-3.581a7.008,7.008,0,0,0-6.47,4.146v13.977H506.4V304.628h1.885l.063,3.518c.817-2.01,3.455-4.146,7.13-4.146,3.549,0,5.873,1.979,5.873,5.622v14.134Z" transform="translate(-353.817 -295.41)" fill="#d6d6d6"/>
    <path id="Pfad_2194" data-name="Pfad 2194" d="M575.743,305.659c-3.581,0-6.376,2.418-6.439,7.444h12.563c-.031-5.025-2.356-7.444-6.125-7.444m-6.47,9.046c0,5.34,2.889,7.7,6.973,7.7a13.369,13.369,0,0,0,6.313-1.476v1.7c-1.351.974-3.926,1.476-6.69,1.476-3.957,0-8.669-2.23-8.669-9.328v-1.382c0-6,3.581-9.485,8.449-9.485,5.182,0,8.229,3.581,8.229,9.423V314.7Z" transform="translate(-395.52 -295.341)" fill="#d6d6d6"/>
  </g>
</svg>
