<svg xmlns="http://www.w3.org/2000/svg" width="165.52" height="105.961" viewBox="0 0 165.52 105.961">
  <defs>
    <style>
      .cls-1 {
        fill: #fff;
      }

      .cls-2 {
        fill: #ff5a00;
      }

      .cls-3 {
        fill: #eb001b;
      }

      .cls-4 {
        fill: #f79e1b;
      }
    </style>
  </defs>
  <g id="Gruppe_1309" data-name="Gruppe 1309" transform="translate(-16475 -14183)">
    <path id="XMLID_3_" class="cls-1" d="M157.269,3.532h1.746c.473,0,.946.009,1.422.021a18,18,0,0,1,2.7.235,7.156,7.156,0,0,1,2.073.694,6.787,6.787,0,0,1,2.925,3.008,7.5,7.5,0,0,1,.674,2.124,19.288,19.288,0,0,1,.229,2.764c.013.482.019.964.021,1.457V99.2c0,.482-.008.964-.021,1.446a19.258,19.258,0,0,1-.231,2.774,7.478,7.478,0,0,1-.673,2.116,6.788,6.788,0,0,1-2.933,3.008,7.1,7.1,0,0,1-2.06.691,18.307,18.307,0,0,1-2.688.236c-.477.011-.954.017-1.441.02H13.57c-.476,0-.952-.009-1.411-.019a18.337,18.337,0,0,1-2.7-.235,7.122,7.122,0,0,1-2.075-.7,6.787,6.787,0,0,1-2.925-3,7.565,7.565,0,0,1-.675-2.127,19.19,19.19,0,0,1-.23-2.762c-.013-.484-.018-.964-.021-1.452V13.836c0-.485.008-.964.021-1.454a19.2,19.2,0,0,1,.231-2.771,7.553,7.553,0,0,1,.675-2.123,6.788,6.788,0,0,1,2.925-3A7.143,7.143,0,0,1,9.456,3.8a17.972,17.972,0,0,1,2.7-.236c.473-.013.945-.018,1.414-.021h143.7" transform="translate(16471.465 14179.468)"/>
    <g id="Mastercard-logo" transform="translate(16508.787 14197.947)">
      <path id="XMLID_1775_" d="M62.671,670.573v-5.048a2.961,2.961,0,0,0-3.2-3.2,3.31,3.31,0,0,0-2.862,1.431,2.953,2.953,0,0,0-2.7-1.431,2.711,2.711,0,0,0-2.353,1.176V662.5H49.8v8.077h1.764v-4.46c0-1.431.755-2.108,1.931-2.108s1.764.755,1.764,2.108v4.46h1.764v-4.46a1.864,1.864,0,0,1,1.931-2.108c1.176,0,1.764.755,1.764,2.108v4.46ZM88.843,662.5H85.981v-2.441H84.216V662.5h-1.6v1.6h1.6V667.8c0,1.853.755,2.941,2.774,2.941a4.744,4.744,0,0,0,2.186-.588l-.51-1.519a2.822,2.822,0,0,1-1.519.422c-.843,0-1.176-.51-1.176-1.343v-3.617h2.862v-1.6Zm14.978-.177a2.392,2.392,0,0,0-2.108,1.176v-1.01H99.949v8.077h1.764v-4.548c0-1.343.588-2.108,1.686-2.108a5.421,5.421,0,0,1,1.1.167l.51-1.686a7,7,0,0,0-1.186-.069Zm-22.634.843a5.789,5.789,0,0,0-3.284-.843c-2.019,0-3.362,1.01-3.362,2.607,0,1.343,1.01,2.107,2.774,2.353l.843.088c.921.167,1.431.422,1.431.843,0,.588-.676,1.01-1.853,1.01a4.651,4.651,0,0,1-2.7-.843L74.2,669.72a5.914,5.914,0,0,0,3.45,1.01c2.353,0,3.705-1.1,3.705-2.607,0-1.431-1.1-2.186-2.774-2.441l-.843-.088c-.755-.088-1.343-.255-1.343-.755,0-.588.588-.921,1.519-.921a6.071,6.071,0,0,1,2.529.676l.745-1.431Zm46.944-.843a2.392,2.392,0,0,0-2.108,1.176v-1.01h-1.764v8.077h1.764v-4.548c0-1.343.588-2.108,1.686-2.108a5.42,5.42,0,0,1,1.1.167l.51-1.666a5.374,5.374,0,0,0-1.186-.088Zm-22.545,4.215a4.042,4.042,0,0,0,4.293,4.205,4.227,4.227,0,0,0,2.862-.921l-.843-1.431a3.371,3.371,0,0,1-2.108.755,2.389,2.389,0,0,1-2.441-2.607,2.475,2.475,0,0,1,2.441-2.607,3.45,3.45,0,0,1,2.108.755l.843-1.431a4.177,4.177,0,0,0-2.862-.921,4.037,4.037,0,0,0-4.293,4.205Zm16.321,0V662.5h-1.764v1.01a3.048,3.048,0,0,0-2.529-1.176,4.209,4.209,0,0,0,0,8.41,2.853,2.853,0,0,0,2.529-1.176v1.01h1.764v-4.039Zm-6.479,0a2.446,2.446,0,1,1,4.882,0,2.446,2.446,0,1,1-4.882,0Zm-21.114-4.215a4.207,4.207,0,0,0,.088,8.411,5.128,5.128,0,0,0,3.284-1.1l-.843-1.265a4.007,4.007,0,0,1-2.353.843,2.275,2.275,0,0,1-2.441-1.931h5.97V666.6c.078-2.6-1.441-4.284-3.705-4.284Zm0,1.519a1.966,1.966,0,0,1,2.019,1.931H92.127a2.127,2.127,0,0,1,2.186-1.931Zm43.836,2.7V659.3h-1.764v4.205a3.048,3.048,0,0,0-2.529-1.176,4.209,4.209,0,0,0,0,8.41,2.853,2.853,0,0,0,2.529-1.176v1.01h1.764v-4.039Zm-6.479,0a2.446,2.446,0,1,1,4.882,0,2.446,2.446,0,1,1-4.882,0Zm-59.069,0V662.5H70.836v1.01a3.048,3.048,0,0,0-2.529-1.176,4.209,4.209,0,0,0,0,8.41,2.853,2.853,0,0,0,2.529-1.176v1.01H72.6v-4.039Zm-6.558,0a2.446,2.446,0,1,1,4.882,0,2.446,2.446,0,1,1-4.882,0Z" transform="translate(-44.918 -594.673)"/>
      <g id="Gruppe_1303" data-name="Gruppe 1303">
        <rect id="rect19" class="cls-2" width="26.506" height="47.62" transform="translate(35.681 6.479)"/>
        <path id="XMLID_330_" class="cls-3" d="M37.445,30.289A30.375,30.375,0,0,1,48.973,6.479a30.279,30.279,0,1,0-18.683,54.1A30.127,30.127,0,0,0,48.973,54.1,30.228,30.228,0,0,1,37.445,30.289Z"/>
        <path id="path22" class="cls-4" d="M548.573,30.289A30.26,30.26,0,0,1,499.6,54.1a30.353,30.353,0,0,0,0-47.62,30.26,30.26,0,0,1,48.973,23.81Z" transform="translate(-450.627)"/>
      </g>
    </g>
  </g>
</svg>
