<svg id="perfect-is-logo" xmlns="http://www.w3.org/2000/svg" width="164.598" height="52.434" viewBox="0 0 164.598 52.434">
  <path id="Pfad_2184" data-name="Pfad 2184" d="M96.7,52.617c-4.327-8.883-16.628-6.81-16.709,3.5-.045,5.662,5.068,8.267,8.317,11.432a73.9,73.9,0,0,0,8.824,7.127,54.106,54.106,0,0,0,7.636-6.618c3.085-3.336,8.7-6.34,8.656-12C113.339,45.72,100.824,44.088,96.7,52.617Z" transform="translate(-66.414 -38.871)" fill="#c61f30" fill-rule="evenodd"/>
  <path id="Rounded_Rectangle_5" data-name="Rounded Rectangle 5" d="M4.582-1H56a4.582,4.582,0,0,1,4.582,4.582V39.047A4.582,4.582,0,0,1,56,43.628H4.582A4.582,4.582,0,0,1,0,39.047V3.582A4.582,4.582,0,0,1,4.582-1ZM5.6,2.563H55.319a1.7,1.7,0,0,1,1.7,1.7V38.2a1.7,1.7,0,0,1-1.7,1.7H5.6a1.7,1.7,0,0,1-1.7-1.7V4.26A1.7,1.7,0,0,1,5.6,2.563ZM16.714,48.889H44.2a1.273,1.273,0,0,1,0,2.545H16.714a1.273,1.273,0,0,1,0-2.545Zm7.212-5.26h12.9v5.26h-12.9Z" transform="translate(0 1)" fill="#363636" fill-rule="evenodd"/>
  <path id="perfect.is" d="M381.524,83.429a1.378,1.378,0,0,0-1.082-.474,1.32,1.32,0,0,0-1.065.461,2.125,2.125,0,0,0-.389,1.4V98.929a3.651,3.651,0,0,0,.286,1.624,1.187,1.187,0,0,0,1.168.558q1.5,0,1.5-2.157V94.04a6.543,6.543,0,0,0,1.735,1.654,4.2,4.2,0,0,0,2.251.563,4.773,4.773,0,0,0,2.079-.461,4.9,4.9,0,0,0,1.678-1.318,6.307,6.307,0,0,0,1.117-2.121,9.022,9.022,0,0,0,.407-2.774,8.263,8.263,0,0,0-.7-3.547,5.3,5.3,0,0,0-1.918-2.277,4.825,4.825,0,0,0-2.657-.779,4.325,4.325,0,0,0-2.153.533,6.263,6.263,0,0,0-1.833,1.672v-.4A2,2,0,0,0,381.524,83.429Zm6.145,8.407a3.237,3.237,0,0,1-1.065,1.42,2.436,2.436,0,0,1-1.442.473,2.713,2.713,0,0,1-2.188-1.084,4.69,4.69,0,0,1-.882-3.037,4.8,4.8,0,0,1,.888-3.139,2.735,2.735,0,0,1,2.182-1.067,2.431,2.431,0,0,1,1.483.5,3.246,3.246,0,0,1,1.048,1.425,6.728,6.728,0,0,1-.023,4.512ZM403.6,90.11q.675-.368.675-1.61a5.769,5.769,0,0,0-.652-2.629,5.238,5.238,0,0,0-1.963-2.1,5.834,5.834,0,0,0-3.142-.815,6.666,6.666,0,0,0-2.564.476,5.2,5.2,0,0,0-1.946,1.369,6.047,6.047,0,0,0-1.2,2.14,8.59,8.59,0,0,0-.411,2.708,6.951,6.951,0,0,0,1.671,4.908,6.056,6.056,0,0,0,4.681,1.809A6.9,6.9,0,0,0,401.076,96a5.6,5.6,0,0,0,1.683-.91c.168-.138,1.449-1.248.327-2.294-1.045-.973-1.349-.153-1.707.177a6.887,6.887,0,0,1-.8.633,3.251,3.251,0,0,1-.9.434,3.564,3.564,0,0,1-1.024.139,2.818,2.818,0,0,1-1.527-.434,3.049,3.049,0,0,1-1.11-1.29,4.565,4.565,0,0,1-.429-1.978H401.7a4.025,4.025,0,0,0,1.9-.369Zm-7.1-4.016a2.441,2.441,0,0,1,1.917-.85,2.522,2.522,0,0,1,1.974.838,4.131,4.131,0,0,1,.864,2.526h-5.666A4.36,4.36,0,0,1,396.5,86.094Zm12.481,2.991a8.338,8.338,0,0,1,.328-1.782,2.463,2.463,0,0,1,.668-1.129,1.611,1.611,0,0,1,1.109-.38,3.6,3.6,0,0,1,1.148.223,3.674,3.674,0,0,0,.82.223,1.176,1.176,0,0,0,.843-.392,1.354,1.354,0,0,0,.39-1,1.553,1.553,0,0,0-.916-1.377,3.787,3.787,0,0,0-1.89-.52,2.251,2.251,0,0,0-1.556.519,5.718,5.718,0,0,0-1.137,1.534,3.015,3.015,0,0,0-.373-1.534,1.226,1.226,0,0,0-1.109-.519q-1.505,0-1.505,2.223v9.18a2.263,2.263,0,0,0,.43,1.5,1.374,1.374,0,0,0,1.1.507,1.428,1.428,0,0,0,1.12-.5,2.219,2.219,0,0,0,.441-1.5V91.6q0-1.486.091-2.519Zm7.185-4.421v9.788c0,.731-.02.865,0,1.387.018.484.916.7,1.354.69.486-.015,1.332-.044,1.524-.518a3.763,3.763,0,0,0,.215-1.56l-.064-8.281h1.346a15.99,15.99,0,0,1,1.851,0c.347.051.673-.448.673-1.052,0-.848.337-1.228-.841-1.228h-3.029l.064-2.774a4.683,4.683,0,0,1,.238-1.686,1.028,1.028,0,0,1,1.076-.589,8.777,8.777,0,0,0,2.039-.2c.291-.077.283-.537.283-.88,0-1.056.292-1.762-1.513-1.762a11.669,11.669,0,0,0-3.6.645,2.615,2.615,0,0,0-1.246,1.489,8.351,8.351,0,0,0-.368,2.755v3.777Zm19,5.446q.675-.368.675-1.61a5.769,5.769,0,0,0-.652-2.629,5.236,5.236,0,0,0-1.963-2.1,5.835,5.835,0,0,0-3.142-.814,6.666,6.666,0,0,0-2.564.476,5.2,5.2,0,0,0-1.946,1.369,6.045,6.045,0,0,0-1.2,2.14,8.591,8.591,0,0,0-.413,2.708,6.951,6.951,0,0,0,1.671,4.908,6.055,6.055,0,0,0,4.681,1.809A6.906,6.906,0,0,0,432.638,96a12.6,12.6,0,0,0,1.682-.91c1.175-.6.274-2.173.327-2.124a1.323,1.323,0,0,0-1.705.008c-.263.2-.511.436-.8.633a3.252,3.252,0,0,1-.9.434,3.564,3.564,0,0,1-1.024.139,2.818,2.818,0,0,1-1.527-.434,3.049,3.049,0,0,1-1.11-1.29,4.561,4.561,0,0,1-.429-1.978h6.112a4.028,4.028,0,0,0,1.9-.369Zm-7.1-4.016a2.441,2.441,0,0,1,1.917-.85,2.522,2.522,0,0,1,1.974.838,4.133,4.133,0,0,1,.864,2.526h-5.666A4.359,4.359,0,0,1,428.061,86.094Zm17.786,6.363c-.679,0-1.319.831-1.7,1.125a2.319,2.319,0,0,1-1.455.465,2.385,2.385,0,0,1-1.16-.287,2.552,2.552,0,0,1-.9-.844,4.24,4.24,0,0,1-.57-1.345,7.146,7.146,0,0,1-.2-1.731,5.666,5.666,0,0,1,.766-3.162,2.151,2.151,0,0,1,1.994-1.007,2.207,2.207,0,0,1,1.46.316c.845.7,1.861,1.284,2.612.532,1.345-1.345-.354-2.129-.437-2.208a5.067,5.067,0,0,0-1.554-.978,5.222,5.222,0,0,0-2.014-.379,5.3,5.3,0,0,0-3.045.862,5.43,5.43,0,0,0-1.947,2.44,9.186,9.186,0,0,0-.673,3.633,7.427,7.427,0,0,0,1.471,4.838,4.987,4.987,0,0,0,4.091,1.8,5.958,5.958,0,0,0,2.217-.391,4.8,4.8,0,0,0,1.631-1.034,4.49,4.49,0,0,0,.963-1.352C447.325,93.917,447.943,92.457,445.847,92.457Zm3.4-6.894v6.365a10.418,10.418,0,0,0,.234,2.466,2.42,2.42,0,0,0,.987,1.446,3.88,3.88,0,0,0,2.213.522,8.607,8.607,0,0,0,2.843-.172,1.388,1.388,0,0,0,.679-1.358c0-1.407-1.711-1.092-1.188-1.188a15.74,15.74,0,0,1-1.6.154.9.9,0,0,1-.724-.261,1.26,1.26,0,0,1-.274-.68,10.543,10.543,0,0,1-.051-1.2l-.062-5.313h.339c.616,0,2.851-.133,3.224-.17.433-.042.7-.743.679-1.188-.031-.554-.392-1.3-.679-1.358-.216-.04-1.934,0-2.376,0l-1.126.046V80.911a7.428,7.428,0,0,0-.085-1.294,1.431,1.431,0,0,0-.4-.771,1.491,1.491,0,0,0-1.072-.474,1.42,1.42,0,0,0-.764.213,1.452,1.452,0,0,0-.525.553,1.946,1.946,0,0,0-.222.783q-.04.455-.04,1.257v4.385ZM460.591,96.03a1.985,1.985,0,0,0,0-2.695,1.712,1.712,0,0,0-1.273-.54,1.648,1.648,0,0,0-1.255.546,1.847,1.847,0,0,0-.509,1.3,1.765,1.765,0,0,0,1.8,1.888A1.733,1.733,0,0,0,460.591,96.03Zm5.764-12.057a1.873,1.873,0,0,0-1.346-.339,1.454,1.454,0,0,0-1.177.339A1.584,1.584,0,0,0,463.5,85.2v9.343a9.507,9.507,0,0,0,.167,1.3c.038.477.841.707,1.33.681.443-.023,1.073-.007,1.362-.342s.169-.99.169-1.644V85.108C466.523,84.526,466.643,84.3,466.355,83.973Zm-.252-3.484a1.57,1.57,0,0,0,.447-1.19,1.491,1.491,0,0,0-1.51-1.607,1.5,1.5,0,0,0-1.079.453,1.593,1.593,0,0,0,1.08,2.773A1.483,1.483,0,0,0,466.1,80.489Zm12.7,10.194a3.988,3.988,0,0,0-1.393-1.211,9.981,9.981,0,0,0-2.369-.882q-1.222-.31-1.917-.525a3.347,3.347,0,0,1-1.108-.543,1.028,1.028,0,0,1-.411-.841,1.1,1.1,0,0,1,.56-.936,2.466,2.466,0,0,1,1.4-.376,2.535,2.535,0,0,1,1.3.286,2.865,2.865,0,0,1,.833.764,1.391,1.391,0,0,0,2.219.1c1.332-1.325-.561-2.252-.569-2.257a5.31,5.31,0,0,0-1.61-.7,8.306,8.306,0,0,0-2.177-.264,6.085,6.085,0,0,0-2.632.519,3.877,3.877,0,0,0-1.65,1.389,3.363,3.363,0,0,0-.56,1.848,2.853,2.853,0,0,0,.605,1.849,4.328,4.328,0,0,0,1.616,1.21,16.477,16.477,0,0,0,2.621.877,7.485,7.485,0,0,1,2.049.751,1.372,1.372,0,0,1,.622,1.252,1.234,1.234,0,0,1-.6,1,2.549,2.549,0,0,1-1.536.435,3.341,3.341,0,0,1-1.821-.429,6.907,6.907,0,0,1-1.149-1.026c-.281-.283-1.544-.507-1.867-.17-.338.353-1.018.574-.108,1.857A4.205,4.205,0,0,0,470.926,96a7.008,7.008,0,0,0,2.878.537,8,8,0,0,0,2.987-.495,3.864,3.864,0,0,0,1.856-1.455,4.122,4.122,0,0,0,.628-2.308A2.767,2.767,0,0,0,478.8,90.683Z" transform="translate(-314.677 -62.931)" fill="#536370" fill-rule="evenodd"/>
</svg>
