<svg xmlns="http://www.w3.org/2000/svg" xmlns:xlink="http://www.w3.org/1999/xlink" width="862.25" height="288.225" viewBox="0 0 862.25 288.225"><defs><linearGradient id="a" x1="0.915" y1="6.235" x2="-0.383" y2="5.566" gradientUnits="objectBoundingBox"><stop offset="0" stop-color="#00a0ff"/><stop offset="0.007" stop-color="#00a1ff"/><stop offset="0.26" stop-color="#00beff"/><stop offset="0.512" stop-color="#00d2ff"/><stop offset="0.76" stop-color="#00dfff"/><stop offset="1" stop-color="#00e3ff"/></linearGradient><linearGradient id="b" x1="1.076" y1="15.99" x2="-1.305" y2="15.99" gradientUnits="objectBoundingBox"><stop offset="0" stop-color="#ffe000"/><stop offset="0.409" stop-color="#ffbd00"/><stop offset="0.775" stop-color="orange"/><stop offset="1" stop-color="#ff9c00"/></linearGradient><linearGradient id="c" x1="0.862" y1="10.124" x2="-0.501" y2="8.355" gradientUnits="objectBoundingBox"><stop offset="0" stop-color="#ff3a44"/><stop offset="1" stop-color="#c31162"/></linearGradient><linearGradient id="d" x1="-0.188" y1="12.844" x2="0.421" y2="12.054" gradientUnits="objectBoundingBox"><stop offset="0" stop-color="#32a071"/><stop offset="0.068" stop-color="#2da771"/><stop offset="0.476" stop-color="#15cf74"/><stop offset="0.801" stop-color="#06e775"/><stop offset="1" stop-color="#00f076"/></linearGradient></defs><g transform="translate(2340 -21691)"><path d="M793.586,0H68.7c-2.642,0-5.253,0-7.888.014C58.609.03,56.42.071,54.193.107A95.219,95.219,0,0,0,39.754,1.38,48.026,48.026,0,0,0,26.057,5.9a46.388,46.388,0,0,0-11.663,8.493A45.1,45.1,0,0,0,5.9,26.072,47.566,47.566,0,0,0,1.4,39.786,93.62,93.62,0,0,0,.109,54.212C.042,56.421.035,58.638,0,60.847V227.4c.035,2.237.042,4.4.109,6.643A93.619,93.619,0,0,0,1.4,248.467a47.467,47.467,0,0,0,4.5,13.722,44.73,44.73,0,0,0,8.49,11.632,45.212,45.212,0,0,0,11.663,8.493,48.283,48.283,0,0,0,13.7,4.545,96.953,96.953,0,0,0,14.439,1.274c2.227.049,4.416.077,6.622.077,2.635.014,5.246.014,7.888.014H793.586c2.59,0,5.221,0,7.811-.014,2.2,0,4.447-.028,6.643-.077a95.68,95.68,0,0,0,14.411-1.274,49.028,49.028,0,0,0,13.75-4.545,45.235,45.235,0,0,0,11.653-8.493,46.079,46.079,0,0,0,8.514-11.632,47.586,47.586,0,0,0,4.461-13.722,97.321,97.321,0,0,0,1.337-14.425c.028-2.238.028-4.406.028-6.643.056-2.618.056-5.221.056-7.881V68.714c0-2.639,0-5.256-.056-7.867,0-2.21,0-4.426-.028-6.636a97.322,97.322,0,0,0-1.337-14.426,47.684,47.684,0,0,0-4.461-13.715A46.592,46.592,0,0,0,836.2,5.9a48.765,48.765,0,0,0-13.75-4.518A93.988,93.988,0,0,0,808.04.106c-2.2-.035-4.447-.077-6.643-.091C798.807,0,796.176,0,793.586,0Z" transform="translate(-2340 21691)" fill="#a6a6a6"/><path d="M55.432,276.489c-2.2,0-4.338-.028-6.516-.077a91.423,91.423,0,0,1-13.468-1.175,42.4,42.4,0,0,1-11.938-3.948,38.951,38.951,0,0,1-10.066-7.325A38.34,38.34,0,0,1,6.091,253.9,41.229,41.229,0,0,1,2.178,241.96a89.446,89.446,0,0,1-1.2-13.51c-.046-1.52-.105-6.579-.105-6.579V55.417s.064-4.982.106-6.446A89.135,89.135,0,0,1,2.172,35.481,41.472,41.472,0,0,1,6.088,23.505,38.719,38.719,0,0,1,13.4,13.432a40.1,40.1,0,0,1,10.1-7.368A41.959,41.959,0,0,1,35.42,2.145,90.69,90.69,0,0,1,48.934.963l6.5-.088H795.944l6.579.092a89.241,89.241,0,0,1,13.391,1.172,42.789,42.789,0,0,1,12.04,3.948,40.306,40.306,0,0,1,17.4,17.437A41.526,41.526,0,0,1,849.212,35.4,93.648,93.648,0,0,1,850.464,49c.021,2.041.021,4.233.021,6.414.057,2.7.057,5.274.057,7.867v150.8c0,2.618,0,5.172-.057,7.747,0,2.343,0,4.49-.028,6.7a91.722,91.722,0,0,1-1.231,13.356,41.353,41.353,0,0,1-3.891,12.033,39.49,39.49,0,0,1-7.318,9.985,39,39,0,0,1-10.083,7.368,42.237,42.237,0,0,1-12.019,3.962,90.379,90.379,0,0,1-13.469,1.175c-2.11.049-4.32.077-6.466.077l-7.811.014Z" transform="translate(-2334.583 21696.432)"/><g transform="translate(-2277.703 21756.258)"><path d="M30.71,22.662c-1.782,1.886-2.835,4.813-2.835,8.6V166.686c0,3.8,1.053,6.717,2.835,8.6l.453.441L107.024,99.87V98.082L31.163,22.215Z" transform="translate(-27.875 -20.228)" fill="url(#a)"/><path d="M66.084,82.852,40.8,57.557V55.769l25.289-25.3.569.325L96.62,47.827c8.56,4.862,8.56,12.816,0,17.678L66.659,82.528Z" transform="translate(38.348 22.085)" fill="url(#b)"/><path d="M130.51,60.615,104.652,34.751,28.338,111.065c2.823,2.988,7.476,3.356,12.724.374L130.51,60.615" transform="translate(-25.503 43.997)" fill="url(#c)"/><path d="M130.51,74.774,41.062,23.951c-5.248-2.982-9.9-2.615-12.724.374l76.314,76.314Z" transform="translate(-25.503 -21.89)" fill="url(#d)"/><g transform="translate(0 104.043)"><path d="M129.941,38.882,41.062,89.38c-4.972,2.823-9.418,2.639-12.271.067h0l-.453.453h0l.453.441h0c2.853,2.572,7.3,2.762,12.271-.067L130.51,39.451Z" transform="translate(-25.503 -38.882)" opacity="0.2" style="isolation:isolate"/><path d="M30.71,54.266c-1.782-1.886-2.835-4.813-2.835-8.6v.894c0,3.8,1.053,6.717,2.835,8.6l.453-.453Z" transform="translate(-27.875 -4.141)" opacity="0.12" style="isolation:isolate"/></g><path d="M75.461,42.7,44.931,60.046l.569.569L75.461,43.593c4.28-2.431,6.417-5.633,6.417-8.842h0C81.523,37.647,79.344,40.495,75.461,42.7Z" transform="translate(59.507 43.997)" opacity="0.12" style="isolation:isolate"/><path d="M43.434,24.845,162.843,92.69c3.882,2.2,6.062,5.046,6.417,7.948h0c.006-3.2-2.137-6.411-6.417-8.842L43.434,23.951c-8.56-4.862-15.559-.821-15.559,8.977v.894C27.875,24.024,34.874,19.983,43.434,24.845Z" transform="translate(-27.875 -21.89)" fill="#fff" opacity="0.25" style="isolation:isolate"/></g><path d="M234.834,62.341c-15.269,0-27.714,11.607-27.714,27.61,0,15.892,12.445,27.61,27.714,27.61s27.72-11.718,27.72-27.61C262.554,73.948,250.1,62.341,234.834,62.341Zm0,44.339c-8.368,0-15.58-6.9-15.58-16.729,0-9.939,7.212-16.736,15.58-16.736s15.587,6.8,15.587,16.736C250.421,99.779,243.2,106.68,234.834,106.68ZM174.375,62.341c-15.269,0-27.714,11.607-27.714,27.61,0,15.892,12.445,27.61,27.714,27.61s27.714-11.718,27.714-27.61C202.089,73.948,189.644,62.341,174.375,62.341Zm0,44.339c-8.368,0-15.587-6.9-15.587-16.729,0-9.939,7.219-16.736,15.587-16.736s15.58,6.8,15.58,16.736C189.956,99.779,182.743,106.68,174.375,106.68ZM102.452,70.813V82.524h28.032c-.837,6.589-3.032,11.4-6.381,14.743-4.077,4.083-10.458,8.576-21.65,8.576-17.255,0-30.745-13.905-30.745-31.161S85.2,43.515,102.452,43.515a29.914,29.914,0,0,1,21.131,8.361l8.258-8.258A40.856,40.856,0,0,0,102.452,31.8c-23.637,0-43.508,19.248-43.508,42.885s19.872,42.879,43.508,42.879c12.763,0,22.384-4.187,29.914-12.029,7.738-7.738,10.14-18.612,10.14-27.4a38.4,38.4,0,0,0-.623-7.316Zm294.132,9.1c-2.3-6.167-9.3-17.567-23.637-17.567-14.224,0-26.039,11.185-26.039,27.61,0,15.477,11.711,27.61,27.4,27.61a27.459,27.459,0,0,0,23.007-12.237L387.9,99.046c-3.135,4.6-7.427,7.634-13.594,7.634s-10.562-2.824-13.386-8.362l36.919-15.275Zm-37.646,9.205c-.318-10.666,8.258-16.106,14.431-16.106,4.81,0,8.887,2.4,10.251,5.856ZM328.92,115.886h12.133V34.725H328.92ZM309.048,68.508h-.416c-2.72-3.239-7.952-6.167-14.542-6.167-13.8,0-26.461,12.127-26.461,27.714,0,15.477,12.659,27.506,26.461,27.506,6.589,0,11.822-2.928,14.542-6.278h.416v3.973c0,10.569-5.648,16.217-14.749,16.217-7.42,0-12.023-5.336-13.906-9.835l-10.569,4.395A26.317,26.317,0,0,0,294.3,142.346c14.224,0,26.253-8.368,26.253-28.759V64.009h-11.5ZM295.136,106.68c-8.368,0-15.373-7-15.373-16.626,0-9.725,7-16.84,15.373-16.84,8.264,0,14.749,7.115,14.749,16.84C309.886,99.676,303.4,106.68,295.136,106.68ZM453.414,34.731H424.389v81.154H436.5V85.14h16.911c13.432,0,26.623-9.725,26.623-25.208S466.845,34.731,453.414,34.731Zm.312,39.113H436.5V46.027h17.223a13.912,13.912,0,1,1,0,27.818Zm74.864-11.653c-8.771,0-17.853,3.863-21.611,12.419L517.729,79.1c2.3-4.492,6.583-5.953,11.068-5.953,6.265,0,12.633,3.759,12.737,10.445v.831A26.772,26.772,0,0,0,528.9,81.3c-11.588,0-23.384,6.368-23.384,18.268,0,10.861,9.5,17.859,20.151,17.859,8.141,0,12.633-3.655,15.451-7.939h.415v6.265h11.7V84.634C553.232,70.229,542.475,62.192,528.589,62.192Zm-1.461,44.476c-3.967,0-9.5-1.987-9.5-6.894,0-6.258,6.894-8.66,12.847-8.66a21.566,21.566,0,0,1,11.062,2.714A14.674,14.674,0,0,1,527.129,106.667Zm68.7-42.7L581.946,99.15h-.422L567.118,63.964H554.063l21.618,49.176L563.359,140.5h12.633l33.3-76.532ZM486.723,115.886h12.107V34.731H486.723Z" transform="translate(-2146.208 21784.031)" fill="#fff"/><g transform="translate(-2086.883 21745.557)"><path d="M90.1,38.435q0,8.028-4.758,12.793Q79.934,56.9,71.26,56.9A19.74,19.74,0,0,1,51.352,36.883,19.74,19.74,0,0,1,71.26,16.866a19.838,19.838,0,0,1,7.869,1.6,15.765,15.765,0,0,1,5.991,4.286l-3.366,3.366Q77.941,21.58,71.26,21.58a14.819,14.819,0,0,0-14.882,15.3,15.073,15.073,0,0,0,25.586,11.03,12.085,12.085,0,0,0,3.213-7.767H71.26v-4.6H89.834A16.332,16.332,0,0,1,90.1,38.435Z" transform="translate(-51.352 -16.866)" fill="#fff" stroke="#fff" stroke-miterlimit="10" stroke-width="0.2"/><path d="M80.9,21.707H63.443V33.862H79.181v4.6H63.443V50.615H80.9v4.707H58.525V17H80.9Z" transform="translate(-12.711 -16.144)" fill="#fff" stroke="#fff" stroke-miterlimit="10" stroke-width="0.2"/><path d="M78.461,55.322H73.53V21.707h-10.7V17H89.166v4.707h-10.7Z" transform="translate(10.491 -16.144)" fill="#fff" stroke="#fff" stroke-miterlimit="10" stroke-width="0.2"/><path d="M69.938,55.322V17h4.918V55.322Z" transform="translate(48.771 -16.144)" fill="#fff" stroke="#fff" stroke-miterlimit="10" stroke-width="0.2"/><path d="M87.31,55.322H82.386V21.707h-10.7V17H98.015v4.707H87.31Z" transform="translate(58.161 -16.144)" fill="#fff" stroke="#fff" stroke-miterlimit="10" stroke-width="0.2"/><path d="M112.069,51.094a19.9,19.9,0,0,1-28.1,0,19.6,19.6,0,0,1-5.646-14.211,19.6,19.6,0,0,1,5.646-14.211,19.837,19.837,0,0,1,28.071.026,19.592,19.592,0,0,1,5.672,14.186A19.622,19.622,0,0,1,112.069,51.094ZM87.606,47.881a14.741,14.741,0,0,0,20.822,0,15,15,0,0,0,4.26-11,15,15,0,0,0-4.26-11,14.741,14.741,0,0,0-20.822,0,15.019,15.019,0,0,0-4.254,11A15.019,15.019,0,0,0,87.606,47.881Z" transform="translate(93.958 -16.866)" fill="#fff" stroke="#fff" stroke-miterlimit="10" stroke-width="0.2"/><path d="M85.575,55.322V17h6L110.2,46.808h.211l-.211-7.383V17h4.924V55.322h-5.135L90.5,24.064h-.211l.211,7.39V55.322Z" transform="translate(133.008 -16.144)" fill="#fff" stroke="#fff" stroke-miterlimit="10" stroke-width="0.2"/></g></g></svg>