<svg xmlns="http://www.w3.org/2000/svg" width="118.007" height="29.086" viewBox="0 0 118.007 29.086">
  <g id="ssl-trust" opacity="0.805">
    <g id="Gruppe_263" data-name="Gruppe 263" transform="translate(29.488 9.559)">
      <path id="Pfad_182" data-name="Pfad 182" d="M271.115,113.007a1.281,1.281,0,0,0-.454-1.056,5.912,5.912,0,0,0-1.623-.795A12.326,12.326,0,0,1,265.4,109.5a3.008,3.008,0,0,1-1.181-2.554,3.081,3.081,0,0,1,1.408-2.634,6.024,6.024,0,0,1,3.576-1.01,5.474,5.474,0,0,1,3.531,1.113,3.358,3.358,0,0,1,1.328,2.85l-.023.057h-2.918a1.645,1.645,0,0,0-.522-1.26,2.08,2.08,0,0,0-1.453-.488,2.291,2.291,0,0,0-1.419.4,1.212,1.212,0,0,0-.511.988,1.036,1.036,0,0,0,.522.908,11.282,11.282,0,0,0,1.953.863,9.07,9.07,0,0,1,3.326,1.623A3.28,3.28,0,0,1,274.135,113a3.106,3.106,0,0,1-1.328,2.668,5.939,5.939,0,0,1-3.531.965,6.461,6.461,0,0,1-3.815-1.113,3.543,3.543,0,0,1-1.567-3.19l.023-.057h2.929a1.937,1.937,0,0,0,.6,1.6,2.908,2.908,0,0,0,1.828.477,2.182,2.182,0,0,0,1.4-.375A1.171,1.171,0,0,0,271.115,113.007Z" transform="translate(-263.894 -103.3)" fill="#fff"/>
      <path id="Pfad_183" data-name="Pfad 183" d="M372.415,113.007a1.281,1.281,0,0,0-.454-1.056,5.912,5.912,0,0,0-1.623-.795A12.325,12.325,0,0,1,366.7,109.5a3.008,3.008,0,0,1-1.181-2.554,3.081,3.081,0,0,1,1.408-2.634,6.024,6.024,0,0,1,3.576-1.01,5.474,5.474,0,0,1,3.531,1.113,3.358,3.358,0,0,1,1.328,2.85l-.023.057h-2.918a1.645,1.645,0,0,0-.522-1.26,2.08,2.08,0,0,0-1.453-.488,2.291,2.291,0,0,0-1.419.4,1.212,1.212,0,0,0-.511.988,1.036,1.036,0,0,0,.522.908,11.282,11.282,0,0,0,1.953.863,9.069,9.069,0,0,1,3.326,1.623A3.279,3.279,0,0,1,375.435,113a3.106,3.106,0,0,1-1.328,2.668,5.939,5.939,0,0,1-3.531.965,6.462,6.462,0,0,1-3.815-1.113,3.543,3.543,0,0,1-1.567-3.19l.023-.057h2.929a1.937,1.937,0,0,0,.6,1.6,2.908,2.908,0,0,0,1.828.477,2.182,2.182,0,0,0,1.4-.375A1.171,1.171,0,0,0,372.415,113.007Z" transform="translate(-353.693 -103.3)" fill="#fff"/>
      <path id="Pfad_184" data-name="Pfad 184" d="M472.52,115.638h5.574v2.3H469.5V105h3.02Z" transform="translate(-446.158 -104.807)" fill="#fff"/>
      <path id="Pfad_185" data-name="Pfad 185" d="M560.979,105.908h-4.45v12.034h-1.067V105.908H551V105h9.979Z" transform="translate(-518.405 -104.807)" fill="#fff"/>
      <path id="Pfad_186" data-name="Pfad 186" d="M658.256,112.1v5.847H657.2V105h4.382a4.944,4.944,0,0,1,3.19.908,3.269,3.269,0,0,1,1.113,2.668,3.125,3.125,0,0,1-.59,1.851,3.357,3.357,0,0,1-1.68,1.192,2.817,2.817,0,0,1,1.726,1.079,3.411,3.411,0,0,1,.534,1.953v1.215a3.621,3.621,0,0,0,.148,1.09,1.631,1.631,0,0,0,.477.783v.216h-1.09a1.825,1.825,0,0,1-.465-.9,5.214,5.214,0,0,1-.136-1.2v-1.181a2.422,2.422,0,0,0-.772-1.885,3.123,3.123,0,0,0-2.146-.693Zm0-.908h3.19a3.892,3.892,0,0,0,2.566-.7,2.4,2.4,0,0,0,.806-1.907,2.445,2.445,0,0,0-.806-1.964,3.692,3.692,0,0,0-2.43-.693h-3.326Z" transform="translate(-612.549 -104.807)" fill="#fff"/>
      <path id="Pfad_187" data-name="Pfad 187" d="M770.464,105v8.776a4.054,4.054,0,0,1-1.294,3.236,4.958,4.958,0,0,1-3.372,1.124,4.837,4.837,0,0,1-3.326-1.124,4.078,4.078,0,0,1-1.271-3.236V105h1.067v8.776a3.319,3.319,0,0,0,.976,2.554,3.6,3.6,0,0,0,2.554.9,3.782,3.782,0,0,0,2.611-.9,3.259,3.259,0,0,0,1.01-2.554V105Z" transform="translate(-704.742 -104.807)" fill="#fff"/>
      <path id="Pfad_188" data-name="Pfad 188" d="M871.706,113.345a2.137,2.137,0,0,0-.795-1.726,7.242,7.242,0,0,0-2.759-1.181,8.761,8.761,0,0,1-3.224-1.385,2.775,2.775,0,0,1-1.09-2.3,2.91,2.91,0,0,1,1.226-2.418,5.025,5.025,0,0,1,3.145-.931,4.637,4.637,0,0,1,3.224,1.113,3.417,3.417,0,0,1,1.192,2.713l-.023.057h-.976a2.758,2.758,0,0,0-.92-2.134,3.573,3.573,0,0,0-2.5-.84,3.8,3.8,0,0,0-2.43.693,2.13,2.13,0,0,0-.874,1.726,2.052,2.052,0,0,0,.806,1.635,7.693,7.693,0,0,0,2.793,1.147,8.058,8.058,0,0,1,3.179,1.442,2.965,2.965,0,0,1,1.09,2.4,2.877,2.877,0,0,1-1.272,2.464,5.352,5.352,0,0,1-3.235.92,5.925,5.925,0,0,1-3.383-.976,3.1,3.1,0,0,1-1.4-2.838l.023-.057h.976a2.477,2.477,0,0,0,1.124,2.237,4.754,4.754,0,0,0,2.657.727,4.263,4.263,0,0,0,2.486-.67A2.129,2.129,0,0,0,871.706,113.345Z" transform="translate(-795.414 -103.389)" fill="#fff"/>
      <path id="Pfad_189" data-name="Pfad 189" d="M965.668,105.908h-4.45v12.034H960.15V105.908H955.7V105h9.979v.908Z" transform="translate(-877.16 -104.807)" fill="#fff"/>
    </g>
    <path id="Pfad_190" data-name="Pfad 190" d="M28.665,25.878a41.539,41.539,0,0,1-6.71-2.6A24.03,24.03,0,0,1,16.426,19.1,24.328,24.328,0,0,1,10.9,23.278a40.324,40.324,0,0,1-6.71,2.6A25.715,25.715,0,0,0,7.56,39.739c3.86,6.8,8.867,8.447,8.867,8.447s5.018-1.646,8.878-8.447A25.889,25.889,0,0,0,28.665,25.878Zm-5.847,5.563-5.892,5.892-1.1,1.1a.771.771,0,0,1-.556.227.791.791,0,0,1-.556-.227l-1.1-1.1-2.94-2.94a.771.771,0,0,1-.227-.556.791.791,0,0,1,.227-.556l1.1-1.1a.771.771,0,0,1,.556-.227.791.791,0,0,1,.556.227l2.4,2.4,5.336-5.347A.771.771,0,0,1,21.172,29a.791.791,0,0,1,.556.227l1.1,1.1a.771.771,0,0,1,.227.556A.762.762,0,0,1,22.818,31.441Z" transform="translate(-4.148 -19.1)" fill="#fff"/>
  </g>
</svg>
