<svg xmlns="http://www.w3.org/2000/svg" id="Ebene_1" data-name="Ebene 1" viewBox="0 0 128 128"><defs><clipPath id="clippath"><circle cx="64" cy="64" r="64" style="stroke-width:0;fill:none"/></clipPath><style>.cls-3,.cls-4{stroke-width:0}.cls-3{fill:#f7d9b5}.cls-4{fill:#3b4443}</style></defs><g style="clip-path:url(#clippath)"><path d="M105.4 104.67c-1.87-1.32-4.02-2.29-6.3-2.92l-2.4-.64s.03 0 .05-.01l-17.02-5.53L64 115.91 48.27 95.57l-17.02 5.53s.03 0 .05.01l-2.46.65c-1.96.54-3.84 1.32-5.5 2.4-8.64 5.65-8.89 14.91-9.25 16.63-.03.15.1.28.26.28l49.64 10.45 49.64-10.45c.17 0 .3-.13.26-.28-.35-1.67-.48-10.44-8.51-16.13Z" style="fill:#303030;stroke-width:0"/><path d="m79.73 95.57-1.88-.61c-1.52-.41-2.37-1.66-2.64-3.05-.77-3.94-.68-13.42-.66-15.12 0-.13-.12-.23-.27-.23H53.72c-.15 0-.27.1-.27.23.02 1.67.09 10.97-.66 15.12-.25 1.4-1.12 2.64-2.64 3.05l-1.88.61L64 115.91l15.73-20.34Z" class="cls-3"/><path d="M75.21 92.75a5.99 5.99 0 0 1-.15-.57c-.77-3.94-.68-13.42-.66-15.12 0-.13-.12-.23-.27-.23H53.57c-.15 0-.27.1-.27.23.02 1.67.09 10.97-.66 15.12-.04.2-.09.39-.15.58 3.62.96 7.42 4.1 11.35 4.1s7.74-3.14 11.36-4.11Z" class="cls-3"/><path d="M74.64 88.61c-.09-4.42-.25-8.57-.24-9.69 0-.17-.12-.29-.27-.29H53.57c-.15 0-.27.13-.27.29 0 1.12-.16 5.29-.26 9.72 1.47 1.53 6.92 3.71 10.57 3.73 3.81.03 9.44-2.55 11.03-3.76Z" style="fill:#efbc8b;stroke-width:0"/><path d="M44.44 56.74c1.45 3.9.62 10-1.84 11.18s-5.64-3.01-7.09-6.91c-1.45-3.9-.62-8.02 1.84-9.2s5.64 1.03 7.09 4.93ZM83.26 56.74c-1.45 3.9-.62 10 1.84 11.18s5.64-3.01 7.09-6.91c1.45-3.9.62-8.02-1.84-9.2s-5.64 1.03-7.09 4.93Z" class="cls-3"/><path d="M63.62 22.14c-24.46-.81-24.82 22.61-24.45 30.33.27 5.62 1.6 13.8 2.79 17.85.68 2.33 1.92 6.23 3.7 7.92 4.77 4.55 10.7 8.59 14.36 9.99.66.25 2.11.37 3.6.36 1.49 0 2.94-.1 3.6-.36 3.67-1.4 9.59-5.43 14.36-9.99 1.78-1.69 3.02-5.59 3.7-7.92 1.19-4.06 2.53-12.23 2.79-17.85.37-7.72 0-31.14-24.45-30.33Z" class="cls-3"/><path d="M42.05 47.23c1.04-5.24 2.74-10.3 5.06-14.96-.73-1.2-2.96-1.51-4.22-1.17-8.1 11.35-3.13 26.98-2.23 29.93.73-4.54.47-9.22 1.38-13.8ZM84.89 47.23c-1.04-5.24-2.74-10.3-5.06-14.96.73-1.2 2.96-1.51 4.22-1.17 8.1 11.35 3.13 26.98 2.23 29.93-.73-4.54-.47-9.22-1.38-13.8Z" class="cls-4"/><path d="M66.55 36.17c-4.82 1.06-9.84.61-14.75 1.11-4.91.5-10.11 2.25-12.81 6.39-2.03-10.88 4.47-19.95 14.11-23.83 6.42-2.59 17.89-2.36 21.93 4.03 4.08 6.45-2.46 10.99-8.48 12.31Z" class="cls-4"/><path d="M67.13 33.42c3.58 1.53 7.53 2.04 11.26 3.19 3.73 1.16 7.5 3.24 8.97 6.6 3.19-7.34-1.85-15.08-8.74-19.39-4.59-2.87-12.15-4.3-16.23-.46-4.12 3.88.27 8.15 4.74 10.06Z" class="cls-4"/></g></svg>