<svg xmlns="http://www.w3.org/2000/svg" width="165.52" height="105.961" viewBox="0 0 165.52 105.961">
  <defs>
    <style>
      .cls-1 {
        fill: #fff;
      }

      .cls-2 {
        fill: #1434cb;
      }
    </style>
  </defs>
  <g id="Gruppe_1310" data-name="Gruppe 1310" transform="translate(-16288 -14183)">
    <path id="XMLID_3_" class="cls-1" d="M157.269,3.532h1.746c.473,0,.946.009,1.422.021a18,18,0,0,1,2.7.235,7.156,7.156,0,0,1,2.073.694,6.787,6.787,0,0,1,2.925,3.008,7.5,7.5,0,0,1,.674,2.124,19.288,19.288,0,0,1,.229,2.764c.013.482.019.964.021,1.457V99.2c0,.482-.008.964-.021,1.446a19.258,19.258,0,0,1-.231,2.774,7.478,7.478,0,0,1-.673,2.116,6.788,6.788,0,0,1-2.933,3.008,7.1,7.1,0,0,1-2.06.691,18.307,18.307,0,0,1-2.688.236c-.477.011-.954.017-1.441.02H13.57c-.476,0-.952-.009-1.411-.019a18.337,18.337,0,0,1-2.7-.235,7.122,7.122,0,0,1-2.075-.7,6.787,6.787,0,0,1-2.925-3,7.565,7.565,0,0,1-.675-2.127,19.19,19.19,0,0,1-.23-2.762c-.013-.484-.018-.964-.021-1.452V13.836c0-.485.008-.964.021-1.454a19.2,19.2,0,0,1,.231-2.771,7.553,7.553,0,0,1,.675-2.123,6.788,6.788,0,0,1,2.925-3A7.143,7.143,0,0,1,9.456,3.8a17.972,17.972,0,0,1,2.7-.236c.473-.013.945-.018,1.414-.021h143.7" transform="translate(16284.465 14179.468)"/>
    <path id="Shape" class="cls-2" d="M12.1,10.676A44.7,44.7,0,0,0,1,6.469l.174-.774H18.162c2.3.081,4.171.774,4.779,3.22l3.692,17.6,1.131,5.3L38.105,5.694H49.271l-16.6,38.27H21.508L12.1,10.676Zm45.387,33.33H46.925l6.6-38.311H64.088ZM95.762,6.631,94.326,14.9l-.955-.407a18.953,18.953,0,0,0-7.865-1.467c-4.169,0-6.039,1.67-6.082,3.3,0,1.794,2.262,2.976,5.955,4.728,6.084,2.731,8.905,6.072,8.863,10.434-.085,7.948-7.3,13.084-18.378,13.084a34,34,0,0,1-11.776-2.039l1.478-8.6,1.39.612a22.176,22.176,0,0,0,9.907,2.038c3.04,0,6.3-1.183,6.341-3.75,0-1.671-1.389-2.895-5.474-4.77-4-1.835-9.341-4.891-9.254-10.394C68.521,10.217,75.863,5,86.291,5A27.532,27.532,0,0,1,95.762,6.631Zm14.034,23.8h8.777c-.434-1.915-2.434-11.086-2.434-11.086l-.738-3.3c-.521,1.426-1.433,3.75-1.389,3.668C114.011,19.714,110.665,28.232,109.8,30.433ZM122.829,5.694,131.348,44h-9.777s-.957-4.4-1.26-5.747H106.754c-.392,1.018-2.216,5.747-2.216,5.747H93.459L109.143,8.873c1.087-2.486,3-3.179,5.519-3.179Z" transform="translate(16299.586 14211.192)"/>
  </g>
</svg>
